<svg width="18" height="22" viewBox="0 0 18 22" fill="none" xmlns="http://www.w3.org/2000/svg">
<path d="M17.4604 8.63006C17.32 7.16898 16.8036 5.76915 15.9616 4.56688C15.1195 3.36462 13.9805 2.4009 12.6554 1.76956C11.3303 1.13822 9.86425 0.860785 8.40008 0.964268C6.93592 1.06775 5.5235 1.54863 4.30037 2.36006C3.24957 3.06271 2.36742 3.98936 1.71731 5.07346C1.0672 6.15755 0.665264 7.37217 0.540369 8.63006C0.417852 9.87972 0.575043 11.141 1.00054 12.3223C1.42604 13.5037 2.10917 14.5755 3.00037 15.4601L8.30037 20.7701C8.39333 20.8638 8.50393 20.9382 8.62579 20.989C8.74765 21.0397 8.87836 21.0659 9.01037 21.0659C9.14238 21.0659 9.27309 21.0397 9.39495 20.989C9.51681 20.9382 9.62741 20.8638 9.72037 20.7701L15.0004 15.4601C15.8916 14.5755 16.5747 13.5037 17.0002 12.3223C17.4257 11.141 17.5829 9.87972 17.4604 8.63006V8.63006ZM13.6004 14.0501L9.00037 18.6501L4.40037 14.0501C3.72246 13.3721 3.20317 12.5524 2.87984 11.6498C2.5565 10.7473 2.43715 9.78426 2.53037 8.83006C2.62419 7.86117 2.93213 6.92522 3.43194 6.08991C3.93175 5.25459 4.61093 4.54077 5.42037 4.00006C6.48131 3.2953 7.72668 2.91936 9.00037 2.91936C10.2741 2.91936 11.5194 3.2953 12.5804 4.00006C13.3874 4.53868 14.065 5.24935 14.5647 6.081C15.0644 6.91266 15.3737 7.84467 15.4704 8.81007C15.5666 9.76749 15.4488 10.7343 15.1254 11.6406C14.8019 12.5469 14.281 13.3699 13.6004 14.0501V14.0501ZM9.00037 5.00006C8.11035 5.00006 7.24032 5.26399 6.5003 5.75845C5.76028 6.25292 5.18351 6.95572 4.84291 7.77799C4.50232 8.60026 4.4132 9.50506 4.58684 10.378C4.76047 11.2509 5.18905 12.0527 5.81839 12.682C6.44773 13.3114 7.24955 13.74 8.12246 13.9136C8.99538 14.0872 9.90018 13.9981 10.7224 13.6575C11.5447 13.3169 12.2475 12.7402 12.742 12.0001C13.2364 11.2601 13.5004 10.3901 13.5004 9.50006C13.4977 8.3074 13.0228 7.16434 12.1794 6.321C11.3361 5.47766 10.193 5.00271 9.00037 5.00006V5.00006ZM9.00037 12.0001C8.50592 12.0001 8.02257 11.8534 7.61144 11.5787C7.20032 11.304 6.87989 10.9136 6.69067 10.4568C6.50145 9.99996 6.45194 9.49729 6.54841 9.01234C6.64487 8.52739 6.88297 8.08193 7.2326 7.7323C7.58223 7.38267 8.02769 7.14456 8.51264 7.0481C8.9976 6.95164 9.50026 7.00115 9.95708 7.19037C10.4139 7.37958 10.8043 7.70002 11.079 8.11114C11.3537 8.52226 11.5004 9.00561 11.5004 9.50006C11.5004 10.1631 11.237 10.799 10.7681 11.2678C10.2993 11.7367 9.66341 12.0001 9.00037 12.0001V12.0001Z" fill="#385F36"/>
</svg>
