<svg width="24" height="23" viewBox="0 0 24 23" fill="none" xmlns="http://www.w3.org/2000/svg">
<path d="M1.33333 10.1666H22.6667C23.3918 10.1666 24 10.7748 24 11.5C24 12.2251 23.3918 12.8333 22.6667 12.8333H1.33333C0.608185 12.8333 -7.15256e-07 12.2251 -7.15256e-07 11.5C-7.15256e-07 10.7748 0.608185 10.1666 1.33333 10.1666ZM12.3977 19.8976L21.5906 10.7047C21.8947 10.4006 21.8947 12.5994 21.5906 12.2953L12.3977 3.10232C12.1404 2.8684 12 2.54091 12 2.16665C12 1.4415 12.6082 0.833313 13.3333 0.833313C13.7076 0.833313 14.0351 0.973663 14.269 1.23097L23.462 10.424C24.0702 11.0088 24.0702 11.9912 23.462 12.576L14.269 21.769C14.0351 22.0263 13.7076 22.1666 13.3333 22.1666C12.6082 22.1666 12 21.5585 12 20.8333C12 20.459 12.1404 20.1316 12.3977 19.8976Z" fill="#217074"/>
</svg>
