<svg width="11" height="8" viewBox="0 0 11 8" fill="none" xmlns="http://www.w3.org/2000/svg">
<path d="M10.7474 0.231493C10.6746 0.158136 10.5881 0.0999107 10.4927 0.0601763C10.3973 0.0204418 10.295 -1.52588e-05 10.1917 -1.52588e-05C10.0884 -1.52588e-05 9.98608 0.0204418 9.8907 0.0601763C9.79533 0.0999107 9.70877 0.158136 9.63601 0.231493L3.80522 6.07011L1.3555 3.61257C1.27996 3.5396 1.19078 3.48222 1.09306 3.44371C0.995343 3.4052 0.890996 3.38631 0.785979 3.38813C0.680961 3.38995 0.57733 3.41243 0.481002 3.4543C0.384674 3.49616 0.297535 3.55659 0.224562 3.63214C0.151588 3.70768 0.0942083 3.79686 0.0556985 3.89458C0.0171886 3.99229 -0.00169723 4.09664 0.000119683 4.20166C0.00193659 4.30668 0.0244206 4.41031 0.0662876 4.50663C0.108155 4.60296 0.168585 4.6901 0.244128 4.76308L3.24953 7.76848C3.32229 7.84183 3.40885 7.90006 3.50422 7.93979C3.5996 7.97953 3.7019 7.99999 3.80522 7.99999C3.90854 7.99999 4.01083 7.97953 4.10621 7.93979C4.20158 7.90006 4.28814 7.84183 4.3609 7.76848L10.7474 1.382C10.8268 1.30871 10.8902 1.21976 10.9336 1.12075C10.977 1.02175 10.9993 0.914832 10.9993 0.806746C10.9993 0.69866 10.977 0.591745 10.9336 0.492739C10.8902 0.393733 10.8268 0.304783 10.7474 0.231493Z" fill="white"/>
</svg>
