<svg width="22" height="22" viewBox="0 0 22 22" fill="none" xmlns="http://www.w3.org/2000/svg">
<path fill-rule="evenodd" clip-rule="evenodd" d="M11 2.3999C6.25037 2.3999 2.40002 6.25025 2.40002 10.9999C2.40002 15.7495 6.25037 19.5999 11 19.5999C15.7497 19.5999 19.6 15.7495 19.6 10.9999C19.6 6.25025 15.7497 2.3999 11 2.3999ZM0.400024 10.9999C0.400024 5.14568 5.14581 0.399902 11 0.399902C16.8542 0.399902 21.6 5.14568 21.6 10.9999C21.6 16.8541 16.8542 21.5999 11 21.5999C5.14581 21.5999 0.400024 16.8541 0.400024 10.9999ZM11 6.18216C11.5523 6.18216 12 6.62988 12 7.18216V11.4791L14.9163 12.4512C15.4402 12.6259 15.7234 13.1922 15.5487 13.7161C15.3741 14.2401 14.8077 14.5232 14.2838 14.3486L10.6838 13.1486C10.2755 13.0125 10 12.6303 10 12.1999V7.18216C10 6.62988 10.4477 6.18216 11 6.18216Z" fill="#385F36"/>
</svg>
