<svg width="18" height="17" viewBox="0 0 18 17" fill="none" xmlns="http://www.w3.org/2000/svg">
<path d="M16 1.01428C16 0.81537 15.921 0.624604 15.7803 0.483952C15.6397 0.3433 15.4489 0.264282 15.25 0.264282C15.0511 0.264282 14.8603 0.3433 14.7197 0.483952C14.579 0.624604 14.5 0.81537 14.5 1.01428V6.51428C14.5 6.71319 14.579 6.90396 14.7197 7.04461C14.8603 7.18526 15.0511 7.26428 15.25 7.26428C15.4489 7.26428 15.6397 7.18526 15.7803 7.04461C15.921 6.90396 16 6.71319 16 6.51428V1.01428ZM16 14.0143C16 13.8154 15.921 13.6246 15.7803 13.484C15.6397 13.3433 15.4489 13.2643 15.25 13.2643C15.0511 13.2643 14.8603 13.3433 14.7197 13.484C14.579 13.6246 14.5 13.8154 14.5 14.0143V15.5143C14.5 15.7132 14.579 15.904 14.7197 16.0446C14.8603 16.1853 15.0511 16.2643 15.25 16.2643C15.4489 16.2643 15.6397 16.1853 15.7803 16.0446C15.921 15.904 16 15.7132 16 15.5143V14.0143ZM2.75 13.2643C2.94891 13.2643 3.13968 13.3433 3.28033 13.484C3.42098 13.6246 3.5 13.8154 3.5 14.0143V15.5143C3.5 15.7132 3.42098 15.904 3.28033 16.0446C3.13968 16.1853 2.94891 16.2643 2.75 16.2643C2.55109 16.2643 2.36032 16.1853 2.21967 16.0446C2.07902 15.904 2 15.7132 2 15.5143V14.0143C2 13.8154 2.07902 13.6246 2.21967 13.484C2.36032 13.3433 2.55109 13.2643 2.75 13.2643ZM3.5 1.01428C3.5 0.81537 3.42098 0.624604 3.28033 0.483952C3.13968 0.3433 2.94891 0.264282 2.75 0.264282C2.55109 0.264282 2.36032 0.3433 2.21967 0.483952C2.07902 0.624604 2 0.81537 2 1.01428V6.51428C2 6.71319 2.07902 6.90396 2.21967 7.04461C2.36032 7.18526 2.55109 7.26428 2.75 7.26428C2.94891 7.26428 3.13968 7.18526 3.28033 7.04461C3.42098 6.90396 3.5 6.71319 3.5 6.51428V1.01428ZM9 9.26428C9.19891 9.26428 9.38968 9.3433 9.53033 9.48395C9.67098 9.62461 9.75 9.81537 9.75 10.0143V15.5143C9.75 15.7132 9.67098 15.904 9.53033 16.0446C9.38968 16.1853 9.19891 16.2643 9 16.2643C8.80109 16.2643 8.61032 16.1853 8.46967 16.0446C8.32902 15.904 8.25 15.7132 8.25 15.5143V10.0143C8.25 9.81537 8.32902 9.62461 8.46967 9.48395C8.61032 9.3433 8.80109 9.26428 9 9.26428ZM9.75 1.01428C9.75 0.81537 9.67098 0.624604 9.53033 0.483952C9.38968 0.3433 9.19891 0.264282 9 0.264282C8.80109 0.264282 8.61032 0.3433 8.46967 0.483952C8.32902 0.624604 8.25 0.81537 8.25 1.01428V2.51428C8.25 2.71319 8.32902 2.90396 8.46967 3.04461C8.61032 3.18526 8.80109 3.26428 9 3.26428C9.19891 3.26428 9.38968 3.18526 9.53033 3.04461C9.67098 2.90396 9.75 2.71319 9.75 2.51428V1.01428ZM9 4.26428C8.46957 4.26428 7.96086 4.475 7.58579 4.85007C7.21071 5.22514 7 5.73385 7 6.26428C7 6.79472 7.21071 7.30342 7.58579 7.6785C7.96086 8.05357 8.46957 8.26428 9 8.26428C9.53043 8.26428 10.0391 8.05357 10.4142 7.6785C10.7893 7.30342 11 6.79472 11 6.26428C11 5.73385 10.7893 5.22514 10.4142 4.85007C10.0391 4.475 9.53043 4.26428 9 4.26428ZM2.75 8.26428C2.21957 8.26428 1.71086 8.475 1.33579 8.85007C0.960714 9.22514 0.75 9.73385 0.75 10.2643C0.75 10.7947 0.960714 11.3034 1.33579 11.6785C1.71086 12.0536 2.21957 12.2643 2.75 12.2643C3.28043 12.2643 3.78914 12.0536 4.16421 11.6785C4.53929 11.3034 4.75 10.7947 4.75 10.2643C4.75 9.73385 4.53929 9.22514 4.16421 8.85007C3.78914 8.475 3.28043 8.26428 2.75 8.26428ZM15.25 8.26428C14.7196 8.26428 14.2109 8.475 13.8358 8.85007C13.4607 9.22514 13.25 9.73385 13.25 10.2643C13.25 10.7947 13.4607 11.3034 13.8358 11.6785C14.2109 12.0536 14.7196 12.2643 15.25 12.2643C15.7804 12.2643 16.2891 12.0536 16.6642 11.6785C17.0393 11.3034 17.25 10.7947 17.25 10.2643C17.25 9.73385 17.0393 9.22514 16.6642 8.85007C16.2891 8.475 15.7804 8.26428 15.25 8.26428Z" fill="#217074"/>
</svg>
