<svg width="32" height="32" viewBox="0 0 32 32" fill="none" xmlns="http://www.w3.org/2000/svg">
<path d="M25.9752 28.8149L24.4891 17.8075H24.5304C24.9668 17.8075 25.3206 17.4582 25.3206 17.0272V1.16003C25.3206 0.885849 25.1755 0.632805 24.9382 0.491642C24.701 0.350347 24.4065 0.342009 24.1617 0.469647C21.0804 2.07523 19.1515 5.23217 19.1515 8.67366V15.364C19.1515 16.7133 20.2595 17.8074 21.626 17.8074H21.8134L20.3272 28.8148C20.2192 29.6182 20.4671 30.4299 21.0073 31.0397C21.5486 31.6496 22.3303 31.9999 23.1512 31.9999C23.9721 31.9999 24.7538 31.6496 25.2951 31.0397C25.8354 30.43 26.0832 29.6183 25.9752 28.8149Z" fill="white"/>
<path d="M13.5926 0C12.9931 0 12.508 0.479101 12.508 1.07107V7.05429H11.4233V1.07107C11.4233 0.479101 10.9381 0 10.3386 0C9.7391 0 9.25401 0.479101 9.25401 1.07107V7.05429H8.16934V1.07107C8.16927 0.479101 7.68412 0 7.08467 0C6.48509 0 6 0.479101 6 1.07107V10.7385C6 12.3274 7.30388 13.615 8.91286 13.615H9.15328L7.44377 28.8065C7.35268 29.6192 7.61637 30.432 8.16821 31.0419C8.72118 31.6517 9.51032 32 10.3387 32C11.167 32 11.9561 31.6517 12.5092 31.0419C13.0611 30.432 13.3247 29.6192 13.2336 28.8065L11.524 13.615H11.7645C13.3734 13.615 14.6774 12.3274 14.6774 10.7385V1.07107C14.6773 0.479101 14.1921 0 13.5926 0Z" fill="white"/>
</svg>
