<svg width="32" height="32" viewBox="0 0 32 32" fill="none" xmlns="http://www.w3.org/2000/svg">
<path d="M0.571429 31.1036C0.571429 31.5987 0.980768 32 1.48571 32H12.8C13.3049 32 13.7143 31.5987 13.7143 31.1036V16.089C13.7143 15.5939 13.3049 15.1926 12.8 15.1926H9.48571C8.98077 15.1926 8.57143 15.5939 8.57143 16.089V16.8302C8.57143 17.0679 8.66776 17.2959 8.83922 17.464L10.6898 19.2784C10.7429 19.3304 10.7849 19.3922 10.8137 19.4602C10.8424 19.5281 10.8572 19.601 10.8572 19.6746C10.8572 19.7481 10.8424 19.821 10.8137 19.889C10.7849 19.9569 10.7429 20.0187 10.6898 20.0707L8.40407 22.3117C8.35101 22.3637 8.28801 22.405 8.21868 22.4332C8.14935 22.4613 8.07504 22.4758 8 22.4758C7.92496 22.4758 7.85065 22.4613 7.78132 22.4332C7.71199 22.405 7.64899 22.3637 7.59593 22.3117L5.31021 20.0707C5.25715 20.0187 5.21506 19.9569 5.18634 19.889C5.15762 19.821 5.14284 19.7481 5.14284 19.6746C5.14284 19.601 5.15762 19.5281 5.18634 19.4602C5.21506 19.3922 5.25715 19.3304 5.31021 19.2784L7.16078 17.464C7.33225 17.2959 7.42857 17.0679 7.42857 16.8302V16.089C7.42857 15.5939 7.01923 15.1926 6.51429 15.1926H1.48571C0.980769 15.1926 0.571429 15.5939 0.571429 16.089V31.1036Z" fill="white"/>
<path d="M6.84278 19.9902C6.66425 19.8152 6.66425 19.5314 6.84278 19.3564L7.67366 18.5418C7.85218 18.3667 8.14163 18.3667 8.32016 18.5418L9.15104 19.3564C9.32956 19.5314 9.32956 19.8152 9.15104 19.9902L8.32016 20.8048C8.14163 20.9799 7.85218 20.9799 7.67366 20.8048L6.84278 19.9902Z" fill="white"/>
<path d="M0 10.4865C0 9.99144 0.40934 9.59011 0.914286 9.59011H6.51429C7.01923 9.59011 7.42857 9.99144 7.42857 10.4865V13.1757C7.42857 13.6708 7.01923 14.0721 6.51429 14.0721H0.914286C0.40934 14.0721 0 13.6708 0 13.1757V10.4865Z" fill="white"/>
<path d="M18.2857 16.089C18.2857 15.5939 18.6951 15.1926 19.2 15.1926H30.5143C31.0192 15.1926 31.4286 15.5939 31.4286 16.089V31.1036C31.4286 31.5987 31.0192 32 30.5143 32H19.2C18.6951 32 18.2857 31.5987 18.2857 31.1036V16.089Z" fill="white"/>
<path d="M14.8571 16.089C14.8571 15.5939 15.2665 15.1926 15.7714 15.1926H16.2286C16.7335 15.1926 17.1429 15.5939 17.1429 16.089V31.1036C17.1429 31.5987 16.7335 32 16.2286 32H15.7714C15.2665 32 14.8571 31.5987 14.8571 31.1036V16.089Z" fill="white"/>
<path d="M13.7143 10.4865C13.7143 9.99144 14.1236 9.59011 14.6286 9.59011H17.3714C17.8764 9.59011 18.2857 9.99144 18.2857 10.4865V13.1757C18.2857 13.6708 17.8764 14.0721 17.3714 14.0721H14.6286C14.1236 14.0721 13.7143 13.6708 13.7143 13.1757V10.4865Z" fill="white"/>
<path d="M14.8571 7.23707C14.8571 6.98954 15.0618 6.78888 15.3143 6.78888H16.6857C16.9382 6.78888 17.1429 6.98954 17.1429 7.23707V8.02142C17.1429 8.26895 16.9382 8.46962 16.6857 8.46962H15.3143C15.0618 8.46962 14.8571 8.26895 14.8571 8.02142V7.23707Z" fill="white"/>
<path d="M8.57143 10.4865C8.57143 9.99144 8.98077 9.59011 9.48571 9.59011H11.6571C12.1621 9.59011 12.5714 9.99144 12.5714 10.4865V13.1757C12.5714 13.6708 12.1621 14.0721 11.6571 14.0721H9.48571C8.98077 14.0721 8.57143 13.6708 8.57143 13.1757V10.4865Z" fill="white"/>
<path d="M25.7619 8.46962C26.0299 8.46962 26.2419 8.24403 26.1984 7.98476C25.8358 5.82451 24.3732 4.17003 22.5866 4.00175C22.4936 3.99299 22.4008 4.01753 22.3215 4.06609L18.5006 6.40749C18.3669 6.48939 18.2857 6.63302 18.2857 6.78756V7.39819C18.2857 7.73137 18.6433 7.94807 18.9473 7.79907L22.0301 6.28802C22.1656 6.2217 22.3225 6.21092 22.4661 6.25785C22.6097 6.3048 22.7285 6.40579 22.7962 6.53859C22.8639 6.67139 22.8751 6.82512 22.8272 6.96598C22.7793 7.10677 22.6762 7.22346 22.5409 7.28988L21.8668 7.62055C21.4354 7.83207 21.5889 8.46962 22.0713 8.46962H25.7619Z" fill="white"/>
<path d="M9.45871 7.28974C9.39172 7.25687 9.33179 7.21109 9.28271 7.1556C9.23358 7.10007 9.19609 7.03558 9.17238 6.96584C9.14867 6.89609 9.1392 6.82245 9.14451 6.74912C9.14983 6.67579 9.16982 6.6042 9.20336 6.53845C9.23689 6.47269 9.28331 6.41405 9.33995 6.36589C9.3966 6.31772 9.46237 6.28096 9.53351 6.25771C9.60464 6.23446 9.67975 6.22518 9.75455 6.23039C9.82927 6.2356 9.90222 6.25517 9.96924 6.28799L13.0527 7.79908C13.3567 7.94808 13.7143 7.73138 13.7143 7.3982V6.78756C13.7143 6.63302 13.6331 6.48939 13.4994 6.40749L9.67846 4.06609C9.59921 4.01753 9.50644 3.99299 9.4134 4.00175C7.62682 4.17003 6.16419 5.82451 5.80159 7.98476C5.75808 8.24403 5.97006 8.46962 6.23806 8.46962H9.92863C10.411 8.46962 10.5645 7.83206 10.1331 7.62054L9.45871 7.28974Z" fill="white"/>
<path d="M19.4286 9.36601C19.4286 8.87095 19.8379 8.46962 20.3429 8.46962H31.0857C31.5907 8.46962 32 8.87095 32 9.36601V12.0552C32 12.5503 31.5907 12.9516 31.0857 12.9516H20.3429C19.8379 12.9516 19.4286 12.5503 19.4286 12.0552V9.36601Z" fill="white"/>
</svg>
