<svg width="32" height="32" viewBox="0 0 32 32" fill="none" xmlns="http://www.w3.org/2000/svg">
<g clip-path="url(#clip0_68_1781)">
<path d="M30.2217 17.8813C30.9594 17.8813 31.626 17.4225 31.8838 16.7342C32.1505 16.0459 31.946 15.2694 31.3949 14.784L17.1733 2.43018C16.4978 1.85661 15.5022 1.85661 14.8267 2.43018L0.605064 14.784C0.0539752 15.2694 -0.150461 16.0459 0.116195 16.7342C0.373963 17.4225 1.0406 17.8813 1.77835 17.8813H3.69827C3.69827 17.8813 3.73234 24.5949 3.74009 30.0012C3.74167 31.1057 4.63707 32 5.74164 32H9.77803H14.2223V21.411H17.7777V32H22.222H26.3015C27.4061 32 28.3017 31.1046 28.3017 30V17.8813H30.2217Z" fill="white"/>
</g>
<defs>
<clipPath id="clip0_68_1781">
<rect width="32" height="32" fill="white"/>
</clipPath>
</defs>
</svg>
