<svg width="14" height="16" viewBox="0 0 14 16" fill="none" xmlns="http://www.w3.org/2000/svg">
<path d="M6.66702 16L6.20454 15.6016C5.56698 15.0652 0 10.2338 0 6.6997C0 2.99956 2.98493 0 6.66702 0C10.3491 0 13.334 2.99956 13.334 6.6997C13.334 10.2338 7.76706 15.0652 7.13214 15.6043L6.66702 16ZM6.66702 1.44867C3.78247 1.45195 1.4449 3.80098 1.44164 6.69967C1.44164 8.91985 4.86665 12.4665 6.66702 14.0898C8.46741 12.4659 11.8924 8.91716 11.8924 6.69967C11.8891 3.80098 9.55159 1.45198 6.66702 1.44867Z" fill="currentColor"/>
<path d="M6.66702 9.3554C5.20747 9.3554 4.02427 8.1664 4.02427 6.6997C4.02427 5.233 5.20747 4.044 6.66702 4.044C8.12657 4.044 9.30977 5.233 9.30977 6.6997C9.30977 8.1664 8.1266 9.3554 6.66702 9.3554ZM6.66702 5.37182C5.93725 5.37182 5.34565 5.96632 5.34565 6.69967C5.34565 7.43302 5.93725 8.02752 6.66702 8.02752C7.3968 8.02752 7.9884 7.43302 7.9884 6.69967C7.9884 5.96632 7.39683 5.37182 6.66702 5.37182Z" fill="currentColor"/>
</svg>
