<svg width="32" height="32" viewBox="0 0 32 32" fill="none" xmlns="http://www.w3.org/2000/svg">
<g clip-path="url(#clip0_126_1973)">
<path d="M4.75 13.1875H0.9375C0.419312 13.1875 0 13.6068 0 14.125C0 14.6432 0.419312 15.0625 0.9375 15.0625H4.75C5.26819 15.0625 5.6875 14.6432 5.6875 14.125C5.6875 13.6068 5.26819 13.1875 4.75 13.1875Z" fill="white"/>
<path d="M29.125 13.1875H25.375C24.8568 13.1875 24.4375 13.6068 24.4375 14.125C24.4375 14.6432 24.8568 15.0625 25.375 15.0625H29.125C29.6432 15.0625 30.0625 14.6432 30.0625 14.125C30.0625 13.6068 29.6432 13.1875 29.125 13.1875Z" fill="white"/>
<path d="M25.6689 3.5186C25.3028 3.15241 24.7094 3.15241 24.3433 3.5186L21.6919 6.16997C21.3257 6.53616 21.3257 7.12947 21.6919 7.49566C22.0581 7.86185 22.6514 7.86185 23.0176 7.49566L25.6689 4.84429C26.0351 4.4781 26.0351 3.88479 25.6689 3.5186Z" fill="white"/>
<path d="M8.4331 6.16997L5.78173 3.5186C5.41554 3.15241 4.82222 3.15241 4.45604 3.5186C4.08985 3.88479 4.08985 4.4781 4.45604 4.84429L7.10741 7.49566C7.4736 7.86185 8.06691 7.86185 8.4331 7.49566C8.79929 7.12947 8.79929 6.53616 8.4331 6.16997Z" fill="white"/>
<path d="M15.0625 0C14.5443 0 14.125 0.419312 14.125 0.9375V4.75C14.125 5.26819 14.5443 5.6875 15.0625 5.6875C15.5807 5.6875 16 5.26819 16 4.75V0.9375C16 0.419312 15.5807 0 15.0625 0Z" fill="white"/>
<path d="M14.9097 19.2214C14.9106 19.2226 14.9117 19.2237 14.9125 19.2249C14.8786 19.1739 14.8792 19.175 14.9097 19.2214Z" fill="white"/>
<path d="M14.9096 19.2214C14.5333 18.6815 13.7116 18.6826 13.3375 19.2249L9.23124 25.4124L7.37499 22.9375C6.99999 22.4312 6.24993 22.4312 5.87493 22.9375L0.187429 30.5C-0.0188211 30.7812 -0.0563211 31.1562 0.0936789 31.4749C0.262429 31.7938 0.581179 32 0.937429 32H23.3687C23.2509 31.8229 15.3866 19.945 14.9096 19.2214Z" fill="white"/>
<path d="M15.0625 7.5625C10.9271 7.5625 7.5625 10.9271 7.5625 15.0625C7.5625 17.2796 8.53525 19.2931 10.1196 20.6834L11.7758 18.1881C12.3214 17.3971 13.193 16.9421 14.125 16.9421C14.3174 16.9421 14.5045 16.9731 14.6892 17.0106L17.4017 12.9358C17.9281 12.1603 18.8024 11.7062 19.75 11.7062C20.6976 11.7062 21.5719 12.1603 22.0882 12.922L22.3234 13.2751C21.5162 10.0042 18.5789 7.5625 15.0625 7.5625Z" fill="white"/>
<path d="M31.8298 30.5374L20.5374 13.9749C20.1811 13.45 19.3187 13.45 18.9624 13.9749L16.2966 17.9803C16.6837 18.4484 19.0073 22.0904 25.6193 31.9999H31.0609C31.3984 31.9999 31.7171 31.8124 31.8859 31.5124C32.0548 31.1938 32.036 30.8374 31.8298 30.5374Z" fill="white"/>
</g>
<defs>
<clipPath id="clip0_126_1973">
<rect width="32" height="32" fill="white"/>
</clipPath>
</defs>
</svg>
