<svg width="32" height="32" viewBox="0 0 32 32" fill="none" xmlns="http://www.w3.org/2000/svg">
<path d="M0.798492 7.08729C0.399211 7.27465 0.539224 7.84721 0.984323 7.84721H31.0157C31.4608 7.84721 31.6008 7.27465 31.2015 7.08729L16.1858 0.0412347C16.0687 -0.0137449 15.9313 -0.0137449 15.8142 0.0412347L0.798492 7.08729Z" fill="white"/>
<path d="M4.75276 12.8599H2.86036C2.62811 12.8599 2.43984 13.0393 2.43984 13.2605V25.4749C2.43984 25.6961 2.62811 25.8754 2.86036 25.8754H4.75277C4.98501 25.8754 5.17329 25.6961 5.17329 25.4749V13.2605C5.17329 13.0393 4.98501 12.8599 4.75276 12.8599Z" fill="white"/>
<path d="M12.8817 12.8599H10.9893C10.7571 12.8599 10.5688 13.0393 10.5688 13.2605V25.4749C10.5688 25.6961 10.7571 25.8754 10.9893 25.8754H12.8817C13.114 25.8754 13.3022 25.6961 13.3022 25.4749V13.2605C13.3022 13.0393 13.114 12.8599 12.8817 12.8599Z" fill="white"/>
<path d="M21.0107 12.8599H19.1183C18.886 12.8599 18.6978 13.0393 18.6978 13.2605V25.4749C18.6978 25.6961 18.886 25.8754 19.1183 25.8754H21.0107C21.2429 25.8754 21.4312 25.6961 21.4312 25.4749V13.2605C21.4312 13.0393 21.2429 12.8599 21.0107 12.8599Z" fill="white"/>
<path d="M29.1395 12.8599H27.2471C27.0149 12.8599 26.8266 13.0393 26.8266 13.2605V25.4749C26.8266 25.6961 27.0149 25.8754 27.2471 25.8754H29.1395C29.3718 25.8754 29.56 25.6961 29.56 25.4749V13.2605C29.56 13.0393 29.3718 12.8599 29.1395 12.8599Z" fill="white"/>
<path d="M30.5964 11.6922C30.8286 11.6922 31.0169 11.5129 31.0169 11.2917V9.45482C31.0169 9.23358 30.8286 9.05424 30.5964 9.05424H1.40353C1.17128 9.05424 0.98301 9.23358 0.98301 9.45482V11.2917C0.98301 11.5129 1.17128 11.6922 1.40353 11.6922H30.5964Z" fill="white"/>
<path d="M30.4636 28.8792H29.9806C29.7484 28.8792 29.5601 28.6999 29.5601 28.4786V27.4436C29.5601 27.2224 29.3718 27.043 29.1396 27.043H2.86041C2.62816 27.043 2.43988 27.2224 2.43988 27.4436V28.4786C2.43988 28.6999 2.25161 28.8792 2.01936 28.8792H1.53639C0.687859 28.8792 0 29.5376 0 30.3498V31.5994C0 31.8207 0.188275 32 0.420523 32H31.5795C31.8117 32 32 31.8207 32 31.5994V30.3498C32 29.5376 31.3121 28.8792 30.4636 28.8792Z" fill="white"/>
</svg>
