<svg width="18" height="20" viewBox="0 0 18 20" fill="none" xmlns="http://www.w3.org/2000/svg">
<path d="M3.29299 3.207L6.79299 6.707C6.91547 6.82908 7.0675 6.91734 7.23424 6.96318C7.40099 7.00903 7.57677 7.01089 7.74445 6.9686C7.91213 6.9263 8.06599 6.84128 8.19104 6.72183C8.31609 6.60238 8.40806 6.45257 8.45799 6.287L9.95799 1.287C10.0098 1.11408 10.0139 0.930348 9.96971 0.755307C9.92555 0.580267 9.83484 0.420443 9.70719 0.292794C9.57954 0.165144 9.41972 0.07443 9.24468 0.0302751C9.06964 -0.0138798 8.88591 -0.00982814 8.71299 0.042L3.71299 1.542C3.54779 1.59241 3.39842 1.68463 3.27932 1.80972C3.16023 1.93481 3.07546 2.08853 3.03321 2.256C2.99097 2.42347 2.99268 2.59901 3.03819 2.76562C3.08371 2.93223 3.17147 3.08426 3.29299 3.207Z" fill="currentColor"/>
<path d="M1.96 6.157C0.252002 7.658 0.00800198 10.325 1.412 12.125C2.826 13.937 5.402 14.232 7.168 12.783L12.048 8.779C12.2669 8.59921 12.5196 8.46529 12.7913 8.38518C13.063 8.30508 13.348 8.28043 13.6293 8.31271C13.9107 8.34499 14.1827 8.43354 14.4292 8.57308C14.6757 8.71263 14.8916 8.90032 15.064 9.125C15.813 10.085 15.681 11.525 14.771 12.325L13.728 13.241C13.319 13.601 13.272 14.231 13.622 14.651C13.972 15.071 14.588 15.119 14.997 14.759L16.04 13.843C17.748 12.341 17.993 9.677 16.587 7.875C15.175 6.065 12.595 5.769 10.831 7.217L5.951 11.221C5.73226 11.401 5.47951 11.5352 5.20781 11.6155C4.93611 11.6957 4.65102 11.7204 4.36956 11.6882C4.0881 11.6559 3.81602 11.5672 3.56956 11.4275C3.32309 11.2878 3.10728 11.0999 2.935 10.875C2.188 9.917 2.319 8.475 3.228 7.675L3.77 7.26C4.179 6.9 4.23 6.27 3.88 5.85C3.79778 5.75044 3.6964 5.66841 3.58187 5.60878C3.46734 5.54915 3.342 5.51313 3.21329 5.50287C3.08457 5.49261 2.95511 5.50832 2.83258 5.54905C2.71005 5.58978 2.59695 5.65472 2.5 5.74L1.96 6.157Z" fill="currentColor"/>
<path d="M7 17C7 16.2044 7.31607 15.4413 7.87868 14.8787C8.44129 14.3161 9.20435 14 10 14C10.7956 14 11.5587 14.3161 12.1213 14.8787C12.6839 15.4413 13 16.2044 13 17C13 17.7956 12.6839 18.5587 12.1213 19.1213C11.5587 19.6839 10.7956 20 10 20C9.20435 20 8.44129 19.6839 7.87868 19.1213C7.31607 18.5587 7 17.7956 7 17Z" fill="currentColor"/>
</svg>
