<svg width="81" height="80" viewBox="0 0 81 80" fill="none" xmlns="http://www.w3.org/2000/svg">
<circle cx="40.5" cy="40" r="40" fill="white"/>
<path d="M38.6097 0.0223753C37.6054 0.0804153 36.86 0.138455 36.311 0.196495C24.7549 1.38408 14.2388 7.62115 7.57917 17.2424C3.89675 22.5642 1.56679 28.6807 0.785666 35.083C0.566953 36.8688 0.5 38.0296 0.5 40.0164C0.5 43.4005 0.852619 46.3472 1.62928 49.526C3.71375 58.0445 8.56115 65.6522 15.4216 71.1838C19.8851 74.7823 25.1566 77.4075 30.7449 78.8183C32.5884 79.2826 34.7487 79.6487 36.7573 79.8363C38.9891 80.0461 41.7163 80.055 43.9883 79.8586C51.4067 79.2201 58.5483 76.4878 64.4982 72.0143C71.8854 66.4603 77.139 58.5356 79.3306 49.6376C80.1161 46.4544 80.5 43.2979 80.5 39.9941C80.5 32.3149 78.353 24.9483 74.2243 18.4702C71.9479 14.894 68.9885 11.5768 65.6766 8.89356C59.1197 3.57621 51.1969 0.526877 42.6715 0.0357691C41.9931 -0.00441239 39.1766 -0.0133416 38.6097 0.0223753ZM48.3759 6.94252C48.3938 6.95145 48.4072 7.00503 48.4072 7.06307C48.4072 7.20594 48.4964 7.29969 48.675 7.3488C48.8624 7.39792 48.9963 7.35773 49.0901 7.21933C49.1481 7.13897 49.1883 7.13004 49.3177 7.15236C49.4963 7.18808 49.5097 7.21487 49.4115 7.40684C49.3088 7.60329 49.0945 7.7149 48.8312 7.7149C48.367 7.71044 48.0501 7.44256 48.0501 7.05414V6.8577L48.1974 6.88895C48.2733 6.90681 48.3536 6.92913 48.3759 6.94252ZM41.0155 8.30423C41.0289 9.04982 41.0557 10.1035 41.0736 10.6482L41.1003 11.6348L40.8459 11.6661C40.7076 11.6839 40.5826 11.6929 40.5737 11.6795C40.5647 11.6705 40.5424 11.1839 40.5246 10.599C40.4933 9.54986 40.4933 9.54093 40.3996 9.56325C40.346 9.57665 40.0961 9.59004 39.8416 9.59004H39.3774L39.3997 10.6348L39.4176 11.6795L39.1721 11.7018C39.0382 11.7152 38.9132 11.7197 38.8998 11.7107C38.882 11.7018 38.8552 11.0634 38.8418 10.2954C38.8239 9.52753 38.7972 8.46942 38.7793 7.94706L38.7525 7.00057H39.2882L39.3149 7.61222C39.3328 7.94706 39.3462 8.41585 39.3462 8.6614V9.09893H39.8059C40.0559 9.09893 40.3103 9.08554 40.3683 9.06768L40.471 9.04089L40.4531 8.00064L40.4397 6.95592H40.9843L41.0155 8.30423ZM43.3589 7.072C43.3768 7.08986 43.2071 8.53639 43.158 8.79087C43.1357 8.90249 43.1446 8.90249 43.5151 8.95607C44.14 9.03643 44.4212 9.25073 44.5283 9.71505C44.573 9.90256 44.5685 10.0454 44.506 10.5053C44.4659 10.8178 44.4034 11.1437 44.3632 11.2375C44.2204 11.5768 43.8677 11.8179 43.5107 11.8223C43.341 11.8223 42.2876 11.6929 42.2564 11.6661C42.2519 11.6616 42.3769 10.6214 42.5376 9.35788C42.6983 8.09439 42.8277 7.04968 42.8277 7.03182C42.8277 7.00056 43.3232 7.04075 43.3589 7.072ZM37.159 7.16576C37.159 7.18361 37.2885 8.22833 37.4492 9.49182C37.6099 10.7553 37.7348 11.7956 37.7304 11.8C37.7215 11.8045 37.6009 11.8268 37.4626 11.8402L37.2081 11.8715L37.1858 11.7241C37.1724 11.6438 37.1099 11.175 37.043 10.6839C36.9805 10.1928 36.9269 9.79095 36.9225 9.78648C36.918 9.78202 36.6681 9.81327 36.369 9.84899C36.0387 9.88917 35.82 9.93828 35.82 9.96507C35.82 9.99185 35.8825 10.4562 35.9539 10.9964C36.0253 11.5366 36.0744 11.9875 36.061 11.9965C36.0342 12.0277 35.579 12.0813 35.5522 12.059C35.5432 12.05 35.4004 11.0009 35.2397 9.73291L34.9451 7.4247L35.0612 7.39792C35.1237 7.38006 35.2442 7.36666 35.3335 7.3622L35.4941 7.35773L35.5923 8.12565C35.6459 8.54979 35.7039 9.0141 35.7173 9.15251C35.7396 9.3802 35.7575 9.41146 35.8378 9.41146C36.0298 9.40699 36.802 9.29091 36.8332 9.26412C36.8511 9.24627 36.8064 8.79534 36.7439 8.25959C36.677 7.7283 36.619 7.26844 36.6234 7.23719C36.6234 7.17022 37.159 7.09879 37.159 7.16576ZM45.8272 7.39792C45.8585 7.4247 45.2961 12.0009 45.2604 12.0411C45.2514 12.05 45.1309 12.0411 44.9926 12.0233C44.814 12.0009 44.7471 11.9741 44.7471 11.925C44.7471 11.8536 45.2648 7.76848 45.3095 7.48274L45.3362 7.31755L45.5639 7.34434C45.6933 7.35773 45.8094 7.38452 45.8272 7.39792ZM47.7867 7.7908C47.8894 7.80866 47.9117 7.83545 47.8939 7.91135C47.8626 8.04528 47.2065 10.8848 47.1797 11.0187C47.1663 11.0812 47.3493 10.8089 47.5859 10.416C48.0099 9.70612 48.5991 8.75516 48.8803 8.3087L49.0276 8.07654L49.3043 8.14351C49.4606 8.17922 49.59 8.21494 49.5989 8.22387C49.6168 8.24173 48.5812 12.7331 48.5455 12.7688C48.5321 12.7867 48.425 12.7778 48.309 12.7555C48.1572 12.7197 48.0947 12.6885 48.0947 12.6349C48.0947 12.5947 48.2733 11.8 48.492 10.8714C48.7062 9.94721 48.8803 9.18822 48.8714 9.18822C48.8669 9.18822 48.4295 9.92042 47.8939 10.8089L46.9253 12.434L46.6798 12.376C46.5459 12.3447 46.4209 12.309 46.4075 12.2956C46.3852 12.2733 46.6708 11.0009 47.3225 8.19262C47.4341 7.71937 47.4386 7.71044 47.5457 7.73723C47.6082 7.75062 47.7153 7.77741 47.7867 7.7908ZM32.9678 7.94706C33.1865 8.00957 33.4409 8.25512 33.548 8.50067C33.6686 8.76855 34.2577 11.3714 34.2577 11.6304C34.2577 12.1393 33.9007 12.5278 33.3516 12.6215C32.7848 12.7153 32.334 12.4563 32.1599 11.934C32.0751 11.6795 31.535 9.30877 31.5082 9.07661C31.4591 8.67479 31.6332 8.27298 31.9322 8.09886C32.2804 7.89795 32.633 7.84438 32.9678 7.94706ZM30.4727 10.9785C30.9324 12.1438 31.3029 13.1215 31.2984 13.1573C31.294 13.1885 31.2002 13.251 31.0886 13.2957L30.8833 13.376L30.2182 11.6839C29.8522 10.7553 29.5487 10.0008 29.5442 10.0052C29.5398 10.0097 29.5933 10.8669 29.6648 11.9116C29.7362 12.9519 29.7853 13.8091 29.7808 13.8091C29.6826 13.8671 29.2854 14.0055 29.2675 13.9921C29.2407 13.9654 27.5624 9.71058 27.5624 9.66594C27.5624 9.63022 27.9642 9.44271 27.9865 9.46503C27.9954 9.47396 28.2632 10.1526 28.5891 10.9741C29.3166 12.8224 29.2586 12.6974 29.2363 12.4251C29.2139 12.2376 29.1068 10.1883 29.0711 9.30431L29.0577 9.03643L29.3032 8.93821C29.4371 8.88017 29.5666 8.83999 29.5933 8.84892C29.6157 8.85338 30.0129 9.81327 30.4727 10.9785ZM52.8752 9.37127C52.9957 9.42485 53.0939 9.48289 53.0939 9.50521C53.0939 9.52754 52.71 10.3892 52.2458 11.425C51.7771 12.4608 51.4022 13.3135 51.4111 13.3269C51.4736 13.385 52.4065 13.7778 52.4288 13.7511C52.4422 13.7332 52.835 12.8805 53.2947 11.8536C53.7589 10.8267 54.1473 9.98293 54.1607 9.974C54.1741 9.96507 54.2901 10.0097 54.4195 10.0767L54.6472 10.1928L53.7813 12.1081C53.3037 13.1617 52.9153 14.0279 52.9153 14.0368C52.9153 14.0413 52.9823 14.068 53.0626 14.1038C53.1385 14.135 53.2099 14.1618 53.2189 14.1707C53.2367 14.1797 52.8261 15.0949 52.7859 15.1396C52.7636 15.1574 52.6475 15.1306 52.5181 15.0726L52.2904 14.9699L52.5583 14.4074L52.1878 14.2377C51.9869 14.1439 51.5673 13.9564 51.2594 13.8136L50.6925 13.5546L51.0719 12.7242C51.2772 12.2643 51.7102 11.3 52.036 10.5812C52.3574 9.86685 52.6297 9.27752 52.6386 9.27752C52.6475 9.27752 52.7546 9.32216 52.8752 9.37127ZM26.8036 12.3001C27.3259 13.3269 27.7588 14.1707 27.7678 14.1797C27.7722 14.1886 27.8392 14.1618 27.9151 14.1261C27.9865 14.0859 28.0579 14.0547 28.0713 14.0547C28.0981 14.0547 28.598 14.9967 28.5801 15.0145C28.5712 15.019 28.4641 15.077 28.3391 15.1396L28.1115 15.2556L27.9865 14.9878C27.9151 14.8449 27.8392 14.7243 27.8169 14.7243C27.7901 14.7243 27.3794 14.9297 26.9018 15.1753C26.2189 15.5324 26.027 15.6128 25.9957 15.5682C25.9288 15.4655 23.9247 11.5366 23.9113 11.4786C23.9023 11.4473 23.9961 11.3759 24.121 11.3134L24.3442 11.1973L24.6968 11.8804C24.8932 12.2509 25.3262 13.0948 25.6654 13.7555L26.2769 14.9476L26.7635 14.6931C27.0313 14.5502 27.25 14.4208 27.25 14.3984C27.25 14.3806 26.8304 13.5457 26.3126 12.5411C25.7993 11.5366 25.3753 10.7017 25.3753 10.6883C25.3753 10.666 25.7726 10.4428 25.8261 10.4383C25.8395 10.4383 26.2814 11.2777 26.8036 12.3001ZM56.7718 11.2911C56.995 11.4205 57.3655 11.6304 57.5931 11.7643L58.0038 12.0054L57.8922 12.1929C57.8342 12.2956 57.7672 12.3849 57.7449 12.3938C57.7226 12.3983 57.5574 12.3179 57.3744 12.2108C57.1914 12.1036 56.9325 11.9518 56.7897 11.8759L56.5397 11.7331L56.1782 12.3536C55.9773 12.6974 55.8032 13.0099 55.7899 13.0412C55.772 13.0903 55.9104 13.1885 56.2585 13.3894L56.7495 13.6707L56.6424 13.8493C56.5799 13.952 56.5129 14.0368 56.4862 14.0457C56.4639 14.0547 56.2317 13.943 55.9729 13.7957L55.5087 13.5278L55.1292 14.1797C54.9195 14.5413 54.7409 14.8672 54.7275 14.9029C54.7097 14.952 54.8614 15.0592 55.2944 15.3003C55.6158 15.4833 55.888 15.6351 55.897 15.6396C55.9148 15.6574 55.6738 16.0637 55.647 16.0637C55.5756 16.0593 54.0089 15.1306 54.0089 15.086C54.0089 15.0101 56.2808 11.0678 56.3255 11.0634C56.3523 11.0634 56.5531 11.166 56.7718 11.2911ZM23.398 14.5547C24.3264 15.4431 25.0896 16.1843 25.0986 16.2021C25.1075 16.22 25.0182 16.3004 24.9066 16.3763L24.6968 16.5191L24.5585 16.3941C24.4781 16.3227 24.3219 16.1798 24.2059 16.0682C24.0675 15.9387 23.9827 15.8851 23.938 15.9119C23.8577 15.961 23.1301 16.47 23.0855 16.5102C23.0632 16.528 23.1301 16.7245 23.2283 16.9433C23.331 17.1665 23.4113 17.3719 23.4113 17.3986C23.4113 17.4701 23.0587 17.6933 23.0141 17.6442C22.9873 17.6085 21.2822 13.9029 21.1082 13.4876L21.0457 13.3492L21.3269 13.1439C21.4786 13.0323 21.6304 12.943 21.6572 12.9385C21.6884 12.9385 22.474 13.6662 23.398 14.5547ZM59.7222 13.1439L59.9186 13.3046L59.4187 13.9341C59.142 14.2823 58.8474 14.6574 58.767 14.7601L58.6153 14.9565L58.767 15.0726C58.8474 15.1396 59.0482 15.2958 59.2089 15.4253L59.508 15.653L60.1507 14.8315C60.5033 14.3806 60.8024 14.01 60.8158 14.01C60.8292 14.01 60.9229 14.0859 61.03 14.1797L61.2264 14.3449L59.7803 16.1798C58.6644 17.604 58.3251 18.0103 58.2716 17.9835C58.2359 17.9612 58.1377 17.8898 58.0529 17.8183L57.9056 17.6888L58.4278 17.0236C58.7179 16.6531 59.0125 16.2825 59.0795 16.1932L59.2045 16.0369L58.7581 15.6842C58.5126 15.4967 58.2939 15.3539 58.276 15.3762C58.2582 15.3985 57.9636 15.7735 57.6244 16.2066L57.0084 16.9968L56.7986 16.8316C56.5933 16.6709 56.5888 16.662 56.6602 16.5682C57.0173 16.0771 59.4633 12.9876 59.4901 12.9876C59.5124 12.9831 59.6151 13.0546 59.7222 13.1439ZM20.577 16.5861C21.4385 17.4835 22.1571 18.2514 22.1794 18.2871C22.2196 18.3585 21.9562 18.6621 21.8625 18.6443C21.8313 18.6353 21.2912 18.0862 20.6663 17.4254C19.5102 16.2111 19.2915 15.9878 19.3808 16.1084C19.5504 16.345 21.3135 19.1577 21.3135 19.189C21.3135 19.2336 20.9966 19.5015 20.943 19.5015C20.9252 19.5015 20.3003 19.0818 19.5593 18.5728C18.8184 18.0594 18.1533 17.604 18.0774 17.5549C17.9614 17.4835 19.0058 18.6086 20.0726 19.7024L20.4208 20.064L20.0771 20.3989L18.4747 18.7202C17.5954 17.796 16.8678 17.0236 16.8589 17.0058C16.8544 16.9924 16.966 16.8629 17.1088 16.72L17.3677 16.4611L17.5463 16.5906C17.7337 16.729 20.3449 18.5371 20.4208 18.5862C20.4431 18.5996 20.2155 18.2246 19.9164 17.7514C19.6129 17.2781 19.1576 16.5593 18.9032 16.1575L18.4434 15.4253L18.7068 15.1887C18.8496 15.0592 18.9791 14.952 18.9924 14.9476C19.0058 14.9476 19.72 15.6842 20.577 16.5861ZM63.3823 16.2289L64.0028 16.8227L63.6546 17.1799L63.0476 16.5816L62.8289 16.7959C62.7083 16.9165 62.0477 17.604 61.3648 18.3228L60.124 19.631L59.9276 19.4345L59.7312 19.2425L61.164 17.7424C61.954 16.9209 62.6012 16.2289 62.6012 16.2066C62.6012 16.1887 62.4718 16.0414 62.3111 15.8851L62.021 15.5994L62.3468 15.2646L62.5521 15.4476C62.6637 15.5503 63.0386 15.903 63.3823 16.2289ZM41.6895 17.9121C42.4617 18.0326 43.0732 18.2291 43.7472 18.5818C45.4791 19.4881 46.8315 21.1623 47.2913 22.9749C47.9072 25.4126 47.2511 27.8726 45.5237 29.6094C44.4123 30.7255 43.1402 31.3729 41.6092 31.6006C41.1539 31.6675 40.0425 31.6675 39.5917 31.6006C38.0562 31.3729 36.7796 30.7255 35.6682 29.6094C33.9587 27.8905 33.3115 25.5198 33.8828 23.0776C34.1685 21.8633 34.7621 20.8275 35.7307 19.8586C36.6591 18.93 37.6322 18.3585 38.8329 18.046C39.5604 17.854 40.895 17.7915 41.6895 17.9121ZM65.3954 18.3496C65.6096 18.5996 65.8194 18.8854 65.8641 18.988C66.0694 19.439 65.9176 19.8229 65.3017 20.3632C64.4759 21.0909 64.0608 21.1087 63.4493 20.4569C63.2083 20.198 63.1681 20.1712 63.1011 20.2247C63.0253 20.2828 62.0924 21.0864 61.896 21.2605L61.7933 21.3498L61.4184 20.9748L61.53 20.8677C61.7353 20.6623 64.9446 17.8942 64.9758 17.8942C64.9937 17.8942 65.1811 18.0996 65.3954 18.3496ZM16.3366 18.5818C16.6312 18.7202 17.3052 19.314 17.457 19.5685C17.6936 19.9792 17.64 20.3185 17.2472 20.8051C17.1267 20.9569 17.0285 21.0953 17.0285 21.1132C17.0285 21.1311 17.3275 21.4034 17.6936 21.7204C18.0596 22.0329 18.3631 22.3097 18.3631 22.3276C18.3675 22.3454 18.2917 22.4437 18.1979 22.5463L18.0239 22.7294L16.3545 21.2873C15.435 20.4926 14.636 19.8006 14.5825 19.747L14.4753 19.6488L14.9038 19.1532C15.377 18.613 15.5823 18.4746 15.9126 18.4746C16.0287 18.4746 16.2072 18.5193 16.3366 18.5818ZM14.1629 21.5954C14.2611 21.6445 14.5646 21.8275 14.828 21.9927C15.0913 22.1624 15.5734 22.466 15.8903 22.6714C16.5241 23.0687 16.8098 23.3187 16.9437 23.5732C17.1758 24.0241 16.8857 24.7474 16.3768 24.993C16.1224 25.118 15.7519 25.1001 15.4618 24.9528C15.2341 24.8322 13.4041 23.6714 13.0872 23.4393C12.8015 23.2339 12.6096 22.899 12.6096 22.6044C12.6096 22.3767 12.748 22.0285 12.9086 21.8409C13.0202 21.7159 13.2836 21.5239 13.3907 21.4972C13.5648 21.4481 13.9799 21.5016 14.1629 21.5954ZM68.5422 22.6089C68.8591 23.0955 69.118 23.5107 69.118 23.5241C69.118 23.5509 65.3106 26.0109 65.2079 26.0511C65.1811 26.06 65.1008 25.9662 65.0205 25.8457L64.8821 25.6225L66.6318 24.5018C67.5959 23.8857 68.386 23.3678 68.3949 23.3455C68.4038 23.3187 67.9084 22.5151 67.8325 22.4392C67.8146 22.4213 67.0067 22.9169 66.0381 23.5375L64.275 24.667L64.1277 24.4483C63.9492 24.1849 63.8689 24.2831 64.8107 23.6804C65.1811 23.4437 66.0248 22.9035 66.6854 22.4749C67.3504 22.0463 67.9084 21.7025 67.9307 21.707C67.953 21.7115 68.2297 22.1177 68.5422 22.6089ZM12.6989 25.0599C12.8015 25.0956 13.2077 25.2742 13.6049 25.4483C14.1629 25.7028 14.3682 25.8189 14.5289 25.9752C14.8726 26.31 14.9083 26.6583 14.6583 27.2208C14.6137 27.3279 14.5735 27.4217 14.5735 27.4306C14.5735 27.4396 14.6762 27.4887 14.7967 27.5422C14.9217 27.5958 15.0199 27.6449 15.0199 27.6583C15.0199 27.7253 14.8235 28.1182 14.7878 28.1182C14.7655 28.1182 14.6717 28.078 14.5735 28.0289C14.4753 27.9798 14.3816 27.9396 14.3638 27.9396C14.3459 27.9396 14.2789 28.0512 14.2209 28.1852C14.0959 28.4798 13.8237 28.7611 13.6049 28.837C13.2925 28.9397 12.9801 28.8638 12.1141 28.4664C11.0072 27.9664 10.7795 27.7521 10.7795 27.2253C10.7795 27.0869 10.8242 26.8949 10.8911 26.7252C10.9536 26.5734 11.0027 26.444 11.0027 26.435C11.0027 26.4261 10.8911 26.3681 10.7572 26.3056L10.5162 26.1939L10.6322 25.9528L10.7483 25.7162L10.9938 25.8234C11.1277 25.8814 11.2437 25.9261 11.2482 25.9216C11.2527 25.9127 11.3152 25.7921 11.3821 25.6537C11.5249 25.3635 11.7213 25.1403 11.9177 25.0555C12.0963 24.9751 12.4667 24.9796 12.6989 25.0599ZM70.0509 25.2564C70.1 25.3769 70.1446 25.4885 70.1446 25.5019C70.1446 25.5287 68.7877 26.6984 68.3012 27.0869C68.136 27.2208 68.011 27.3369 68.0155 27.3458C68.0244 27.3547 68.2297 27.319 68.4752 27.2699C68.8993 27.1806 70.6668 26.8681 70.7338 26.8681C70.7695 26.8681 70.9168 27.1449 70.9659 27.3012C70.9927 27.386 70.9837 27.4038 70.9034 27.4038C70.8498 27.4038 69.9214 27.5422 68.8368 27.7164C67.7521 27.886 66.8014 28.0289 66.7166 28.0289C66.5247 28.0289 66.2702 27.9217 66.114 27.7699C65.9846 27.6494 65.7436 27.2788 65.7748 27.252C65.7837 27.2431 65.8819 27.1895 65.9935 27.136C66.1854 27.0377 66.1944 27.0377 66.239 27.1181C66.2613 27.1628 66.3372 27.2565 66.4042 27.3235C66.5113 27.4396 66.547 27.4485 66.8594 27.4485H67.1987L67.7209 26.9842C68.011 26.7297 68.6181 26.1895 69.0733 25.7832C69.5286 25.3769 69.9125 25.0421 69.9259 25.0421C69.9437 25.0376 69.9973 25.1358 70.0509 25.2564ZM11.5919 29.6629C12.8015 30.0737 13.8013 30.413 13.8103 30.4264C13.8415 30.4487 13.6808 30.9309 13.6451 30.9309C13.6273 30.9309 13.1854 30.788 12.6631 30.6139C12.1364 30.4398 11.6946 30.3148 11.6767 30.3326C11.6053 30.413 11.3152 31.3059 11.3464 31.3327C11.3643 31.3506 11.7883 31.5024 12.2793 31.6675C12.7747 31.8327 13.2077 31.9845 13.2389 32.0069C13.288 32.0336 13.2836 32.0872 13.2211 32.2881C13.1765 32.4265 13.1363 32.5381 13.1274 32.5381C13.1184 32.5381 12.2034 32.2301 11.0875 31.8506C9.97163 31.4711 8.97626 31.1363 8.8736 31.105C8.76647 31.0782 8.68167 31.0291 8.68167 30.9979C8.68167 30.8728 8.82896 30.5291 8.88253 30.5291C8.91823 30.5291 9.3512 30.6675 9.84665 30.8416C10.3466 31.0113 10.7751 31.1541 10.8018 31.1541C10.8599 31.1541 11.1902 30.163 11.1455 30.1228C11.1277 30.1049 10.6947 29.9487 10.1814 29.7746C9.66365 29.596 9.23515 29.4486 9.22622 29.4397C9.20836 29.4218 9.35566 28.9218 9.38244 28.9218C9.38691 28.9218 10.3823 29.2567 11.5919 29.6629ZM71.7158 29.1718C71.7649 29.3504 71.7738 29.4263 71.7336 29.4397C71.7068 29.4486 70.8052 29.7076 69.725 30.0156C68.6493 30.3192 67.7611 30.5737 67.7566 30.5826C67.7477 30.5916 67.7923 30.7791 67.8548 31.0023L67.9709 31.4131L68.2654 31.3282C69.6224 30.9354 71.9211 30.2924 71.9702 30.288C72.055 30.2835 72.1889 30.7478 72.1175 30.7925C72.0907 30.8103 71.1891 31.0738 70.1133 31.3773C69.0376 31.6809 68.1539 31.9354 68.1449 31.9399C68.1226 31.9533 68.3235 32.6899 68.3592 32.7301C68.3904 32.7658 68.569 32.7212 70.9391 32.0426C71.7113 31.8238 72.354 31.6452 72.3764 31.6452C72.4121 31.6452 72.5772 32.1363 72.546 32.1542C72.5103 32.181 68.0378 33.4355 68.0244 33.4221C68.0155 33.4132 67.895 33.0069 67.7566 32.5158C67.6182 32.0247 67.4129 31.3015 67.3013 30.9086C67.1451 30.3505 67.1139 30.1942 67.1585 30.1764C67.3549 30.1005 71.4792 28.9307 71.5551 28.9263C71.631 28.9218 71.6622 28.9665 71.7158 29.1718ZM10.6233 33.2346C11.8285 33.4445 12.8238 33.632 12.8417 33.6498C12.8595 33.6632 12.8506 33.7704 12.8283 33.8865C12.7926 34.0383 12.7613 34.1008 12.7078 34.1008C12.6676 34.1008 11.8999 33.9713 11.0072 33.8106C10.11 33.6498 9.36012 33.5248 9.33781 33.5338C9.31995 33.5382 10.0341 33.9356 10.9358 34.4133L12.5739 35.2794L12.5426 35.4803C12.498 35.8152 12.4801 35.8509 12.373 35.8241C12.3195 35.8152 11.2928 35.6277 10.0877 35.4134C8.88699 35.2035 7.88716 35.016 7.8693 34.9982C7.85145 34.9848 7.86038 34.8776 7.88269 34.7571C7.9184 34.6097 7.94965 34.5472 8.00321 34.5472C8.04338 34.5517 8.78433 34.6767 9.64133 34.833C10.5028 34.9892 11.208 35.1142 11.2125 35.1053C11.2214 35.1008 11.0116 34.9803 10.7438 34.8419C10.4805 34.699 9.78862 34.3195 9.2039 33.9981L8.13712 33.4132L8.16836 33.1721C8.20853 32.8373 8.23085 32.7971 8.34244 32.8239C8.39154 32.8328 9.42261 33.0203 10.6233 33.2346ZM50.6836 37.226L50.5854 37.2439C50.5273 37.2528 50.1301 37.284 49.7016 37.3153C48.5768 37.3867 48.0769 37.4939 47.568 37.7796C47.3582 37.8957 47.2913 37.9582 47.1931 38.1636C47.0235 38.5029 46.9029 39.0029 46.8137 39.744C46.7467 40.311 46.7378 41.3379 46.7244 50.4412C46.7021 61.8751 46.7199 62.8886 46.961 63.9021C47.0592 64.3173 47.1395 64.4601 47.3805 64.661C47.8849 65.0852 48.5678 65.2638 49.9471 65.3307C50.2417 65.3486 50.5273 65.3665 50.5854 65.3798L50.6836 65.3977L50.6746 67.1746L50.6612 68.9471H30.5307L30.5173 67.1746L30.5084 65.4022L30.6512 65.3798C30.7315 65.3665 31.0217 65.3441 31.2895 65.3307C32.7044 65.2548 33.3874 65.0584 33.9051 64.5807C34.0881 64.411 34.1194 64.3574 34.2086 63.9958C34.4541 63.0047 34.4497 63.2859 34.4675 52.2271C34.4898 40.1726 34.4765 39.628 34.1462 38.5163C34.0078 38.0564 33.8962 37.9091 33.5391 37.7305C33.0392 37.476 32.3652 37.3465 31.2449 37.293C30.9503 37.2751 30.6646 37.2572 30.611 37.2439L30.5084 37.226V33.6543H50.6836V37.226ZM72.9254 34.0025C72.9477 34.1365 72.9566 34.2481 72.9477 34.257C72.9388 34.266 72.4701 34.3552 71.9077 34.4535C71.3408 34.5562 70.8632 34.6454 70.8409 34.6499C70.8186 34.6588 71.3364 34.8419 71.988 35.0651L73.1753 35.4625L73.2244 35.6768C73.2869 35.9848 73.2825 36.0339 73.1932 35.9982C73.1486 35.9804 72.6263 35.8018 72.0371 35.6009L70.957 35.2303L70.2071 35.7705C69.792 36.0697 69.2742 36.4402 69.06 36.5965C68.8457 36.7527 68.6627 36.8733 68.6538 36.8644C68.6449 36.8554 68.6181 36.7304 68.5957 36.5876L68.5511 36.3331L69.4349 35.6812C69.9214 35.3196 70.3097 35.0115 70.3008 34.9937C70.2874 34.9714 70.1892 34.9267 70.0776 34.8865C69.8857 34.824 69.8366 34.8285 69.1492 34.949C68.752 35.0205 68.4038 35.083 68.3726 35.083C68.3324 35.083 68.2119 34.5963 68.2431 34.5606C68.2699 34.5338 72.6843 33.7525 72.7781 33.757C72.8763 33.7659 72.8941 33.7927 72.9254 34.0025ZM10.2127 36.8108C10.2216 36.8331 10.2127 37.1233 10.1859 37.4582L10.1412 38.0743H9.65025L9.6815 37.5251C9.72613 36.7572 9.71721 36.7795 9.97609 36.7795C10.0966 36.7795 10.2037 36.7929 10.2127 36.8108ZM73.4253 37.9894C73.4432 38.11 73.4476 38.2216 73.4431 38.2305C73.4342 38.2395 72.9432 38.2573 72.354 38.2707C71.7649 38.2886 71.0105 38.3109 70.6802 38.3243L70.0776 38.3511L70.9927 38.6279C71.497 38.7797 72.2514 39.0118 72.671 39.1413L73.4342 39.3779L73.461 39.6726C73.4789 39.8333 73.4833 39.9717 73.4789 39.9807C73.4699 39.9851 72.6933 40.0119 71.747 40.0387C70.8052 40.061 69.7473 40.0923 69.3992 40.1057L68.7609 40.128V39.6458L69.176 39.619C69.6 39.5922 71.1266 39.5521 71.9077 39.5431C72.1532 39.5431 72.3228 39.5253 72.2871 39.5119C72.2514 39.494 71.439 39.2529 70.4794 38.9672L68.7386 38.4538V37.8823L69.4751 37.8644C69.8812 37.851 70.765 37.8287 71.439 37.8109C72.113 37.793 72.8316 37.7707 73.0325 37.7707L73.3941 37.7617L73.4253 37.9894ZM11.6499 39.4538C12.1454 39.6771 12.3596 40.2351 12.1855 40.8245C12.1141 41.0611 11.9311 41.2709 11.6767 41.4004C11.4714 41.5031 10.8554 41.5477 9.41815 41.5656C8.17282 41.579 8.10587 41.5701 7.79789 41.3468C7.55685 41.1682 7.45866 40.9227 7.45866 40.5075C7.45866 40.2262 7.48098 40.1101 7.55686 39.9628C7.65952 39.7664 7.85591 39.5922 8.07909 39.4985C8.23531 39.4315 9.15034 39.3869 10.5117 39.3779C11.3553 39.3735 11.4937 39.3824 11.6499 39.4538ZM71.2828 41.4495C72.4612 41.5388 73.4298 41.6147 73.4342 41.6192C73.4387 41.6236 73.4298 41.7397 73.4164 41.8826C73.3851 42.1862 73.5056 42.1683 72.2335 42.0656C71.7425 42.0255 71.3319 42.0076 71.3185 42.021C71.2828 42.0522 71.198 43.0746 71.2248 43.1014C71.2382 43.1104 71.6979 43.1505 72.2469 43.1952C72.7959 43.2354 73.2646 43.28 73.2825 43.2979C73.3048 43.3157 73.3092 43.4452 73.2914 43.5836L73.2601 43.8336L73.0504 43.8113C72.9388 43.8024 72.7067 43.78 72.5326 43.7667C72.363 43.7533 71.4301 43.6818 70.4615 43.6104C69.4929 43.5345 68.6761 43.4765 68.6404 43.4765C68.5734 43.4765 68.56 43.0925 68.6225 42.9898C68.6672 42.9228 68.752 42.9273 70.0732 43.03C70.4124 43.0568 70.6936 43.0746 70.7025 43.0657C70.7204 43.0478 70.8052 41.9853 70.7918 41.9674C70.7873 41.9629 70.3231 41.9228 69.7607 41.8781L68.7386 41.8022L68.7252 41.5835C68.7029 41.2665 68.7252 41.2352 68.9484 41.262C69.0555 41.2754 70.1044 41.3602 71.2828 41.4495ZM12.2971 42.5567C12.2971 42.588 12.3105 42.7085 12.3239 42.8157L12.3507 43.0211L11.4223 43.6327L10.4894 44.2444L10.7081 44.356L10.9224 44.4631L11.6455 44.3738C12.0472 44.3203 12.4043 44.2801 12.4444 44.2801C12.4935 44.2801 12.5203 44.3426 12.5426 44.5256C12.5605 44.664 12.5694 44.7846 12.556 44.7935C12.5337 44.8158 7.91394 45.4052 7.90055 45.3873C7.89608 45.3784 7.87823 45.2578 7.86038 45.1194L7.83359 44.8649L7.97643 44.8382C8.14604 44.8114 9.88682 44.5926 9.98056 44.5881C10.0163 44.5881 9.52528 44.3828 8.89145 44.1283C8.26209 43.8783 7.72647 43.6506 7.70415 43.6283C7.64613 43.5657 7.60595 43.1193 7.65952 43.1193C7.68183 43.1193 8.17729 43.3113 8.75755 43.5434C9.34227 43.7756 9.84665 43.9676 9.8779 43.9676C9.90914 43.9676 10.3912 43.6774 10.9402 43.3202C12.3552 42.4049 12.2971 42.4362 12.2971 42.5567ZM70.7695 44.9676C72.2916 45.24 72.5147 45.3203 72.7468 45.6463C73.0191 46.0302 72.9388 46.6865 72.5772 47.0347C72.3094 47.2892 72.0461 47.3473 71.5104 47.2714C71.3007 47.2401 71.1176 47.2044 71.1132 47.1865C71.1043 47.1731 71.1177 47.0526 71.14 46.9187C71.1801 46.682 71.1801 46.682 71.3185 46.7088C71.9032 46.8294 72.1934 46.7803 72.3183 46.5436C72.4612 46.2624 72.3898 45.9677 72.1443 45.8248C72.0104 45.74 69.4661 45.2623 69.1715 45.2623C68.9573 45.2623 68.7654 45.3784 68.6895 45.5525C68.502 46.0034 68.7475 46.2579 69.4706 46.3784L69.7964 46.432L69.7697 46.682C69.7518 46.8204 69.7339 46.9365 69.725 46.9455C69.7072 46.9633 69.0287 46.8294 68.8502 46.7713C68.261 46.5838 68.0066 46.057 68.1985 45.423C68.3369 44.9676 68.6627 44.7265 69.1448 44.7265C69.2921 44.7265 70.0241 44.8337 70.7695 44.9676ZM12.5471 46.1731C12.9086 46.3427 13.1006 46.6954 13.1006 47.191C13.1006 47.6018 12.9265 47.8741 12.5426 48.0661C12.3016 48.1866 9.85558 48.7492 9.46279 48.7759C9.18158 48.7938 9.12356 48.7849 8.90931 48.6688C8.579 48.4947 8.40939 48.1956 8.38261 47.7446C8.36476 47.4723 8.37815 47.4008 8.46742 47.2312C8.60579 46.9722 8.90484 46.7669 9.28871 46.6731C9.45832 46.6329 9.62794 46.5883 9.66811 46.5749C9.72613 46.5615 9.75292 46.6017 9.79309 46.7535C9.87343 47.0749 9.86897 47.0794 9.58776 47.1374C8.98965 47.2624 8.79325 47.4812 8.90484 47.8964C8.96287 48.1063 9.1548 48.2536 9.37352 48.2536C9.56991 48.2536 12.1855 47.6419 12.3418 47.5616C12.6408 47.4098 12.6855 46.9812 12.431 46.7267C12.2793 46.5749 12.0516 46.5615 11.6053 46.6731C11.4446 46.7133 11.2884 46.7356 11.2527 46.7222C11.2214 46.7088 11.1768 46.624 11.1634 46.5347C11.1455 46.4454 11.1232 46.3472 11.1098 46.3159C11.0875 46.2624 11.2527 46.2088 11.7838 46.0972C12.0338 46.0436 12.3328 46.0704 12.5471 46.1731ZM71.4747 48.9501C71.872 49.0885 72.1978 49.2045 72.1978 49.2135C72.1978 49.2224 72.0996 49.5081 72.0416 49.6689C72.0282 49.7046 71.6934 49.6108 70.9704 49.3697L69.9214 49.017L70.6668 49.8296C71.0775 50.2761 71.4569 50.6957 71.5194 50.7582L71.6265 50.8788L71.5462 51.1288C71.5015 51.2672 71.4524 51.3744 71.4301 51.3699C71.4122 51.361 71.131 51.0663 70.8097 50.7091C70.4838 50.352 70.1223 49.9546 70.0018 49.8251L69.7786 49.5885L68.4976 49.7492C67.7878 49.8341 67.1585 49.9055 67.0915 49.9055C66.9576 49.9055 66.9576 49.8608 67.1049 49.5483L67.1763 49.3921L68.2387 49.2492C68.8234 49.1733 69.3144 49.0974 69.3278 49.0885C69.3412 49.0751 69.2831 48.9858 69.2073 48.8876C69.0733 48.7313 68.9975 48.6956 68.3413 48.4813C67.9441 48.3473 67.6093 48.2268 67.587 48.2134C67.5602 48.1866 67.587 48.0705 67.712 47.7312C67.7254 47.6866 68.9662 48.0839 71.4747 48.9501ZM14.0156 49.9635C14.0602 50.0796 14.087 50.1823 14.0781 50.1957C14.0647 50.2046 13.2032 50.5484 12.1632 50.9591C11.1188 51.3699 10.2528 51.7181 10.2305 51.7315C10.2127 51.7494 10.2662 51.9369 10.351 52.1512L10.5028 52.5396L10.36 52.6021C10.0207 52.745 10.0698 52.7986 9.71274 51.8833C9.52974 51.419 9.34673 50.9457 9.3021 50.8297L9.21729 50.6154L9.42261 50.5305C9.5342 50.4814 9.64133 50.4412 9.65472 50.4412C9.67257 50.4412 9.75292 50.6198 9.83326 50.8431L9.98502 51.2404L10.1903 51.1556C10.3064 51.1109 11.092 50.8029 11.94 50.468C12.7881 50.1332 13.5692 49.8207 13.6808 49.7716C13.7924 49.7269 13.8951 49.7001 13.9085 49.718C13.9263 49.7358 13.971 49.843 14.0156 49.9635ZM68.9394 51.9369C70.0062 52.4191 70.8855 52.8209 70.8945 52.8254C70.9123 52.8432 70.7249 53.254 70.6981 53.254C70.6847 53.254 70.0062 52.9548 69.1939 52.5843C68.3815 52.2182 67.712 51.9235 67.703 51.9324C67.6941 51.9414 67.9039 52.1467 68.1673 52.3878C68.4351 52.6289 68.9707 53.1289 69.3635 53.495C69.7563 53.8611 70.1133 54.196 70.158 54.2362C70.2383 54.3076 70.2339 54.321 70.1223 54.571C70.0598 54.7183 70.0018 54.8389 69.9973 54.8478C69.9705 54.8701 65.748 52.9459 65.7346 52.9012C65.7212 52.8611 65.8908 52.495 65.9221 52.495C65.931 52.495 66.5916 52.7896 67.3861 53.1468C68.1762 53.504 68.9171 53.8388 69.0287 53.8879L69.2296 53.9728L69.118 53.8656C69.0555 53.8076 68.4663 53.2718 67.8012 52.6736C67.1406 52.0798 66.5514 51.5485 66.4934 51.4949L66.3908 51.3967L66.5068 51.1422L66.6229 50.8922L66.8103 50.9725C66.913 51.0172 67.8727 51.4503 68.9394 51.9369ZM14.8815 52.3209C15.2208 52.5128 15.5064 53.0754 15.4484 53.437C15.4127 53.6602 15.2386 53.9236 15.0244 54.0888C14.819 54.2451 12.7301 55.3255 12.3418 55.4729C12.0249 55.5934 11.7392 55.5889 11.4892 55.4639C11.3107 55.3702 11.0607 55.0577 10.9849 54.8255C10.8331 54.3924 10.9268 54.0397 11.2661 53.7317C11.4267 53.5843 11.9758 53.2718 12.007 53.3075C12.0382 53.3477 12.2079 53.7004 12.2079 53.7361C12.2079 53.7585 12.1007 53.821 11.9758 53.8835C11.5071 54.0978 11.3419 54.3389 11.4491 54.6514C11.5294 54.8969 11.6856 55.013 11.9311 55.0085C12.1141 55.0041 12.3195 54.9148 13.3461 54.3924C14.0111 54.0531 14.6137 53.7317 14.6896 53.6736C14.9708 53.4638 14.9976 53.1066 14.7476 52.8521C14.5557 52.6646 14.3727 52.6736 13.9085 52.8968C13.7076 52.995 13.5201 53.0754 13.4978 53.0754C13.4755 53.0754 13.4086 52.9771 13.3505 52.8566L13.2389 52.6423L13.6719 52.4369C13.9085 52.3253 14.154 52.2226 14.2165 52.2092C14.4129 52.1735 14.7119 52.2226 14.8815 52.3209ZM67.0558 55.9952C67.221 56.0309 67.7254 56.1336 68.1806 56.2229C68.6359 56.3122 69.0376 56.397 69.0778 56.4149C69.1403 56.4417 69.1314 56.4774 69.0064 56.6738L68.8591 56.8971L67.9262 56.7051C67.4174 56.6024 66.9844 56.522 66.9666 56.5265C66.9487 56.531 67.1942 56.8882 67.5111 57.3168L68.0824 58.0981L67.9887 58.2543C67.8102 58.5624 67.8503 58.5936 67.0871 57.5444L66.3729 56.5667L65.1276 56.3167C64.4447 56.1827 63.8733 56.0577 63.8599 56.0488C63.8376 56.022 64.0563 55.6381 64.1188 55.5979C64.1411 55.5845 64.6053 55.6648 65.1499 55.7765C65.6944 55.8881 66.1453 55.9729 66.1587 55.9595C66.1676 55.9506 65.9042 55.5666 65.5739 55.1112C65.2392 54.6514 64.9669 54.2674 64.9669 54.254C64.9669 54.2406 65.0294 54.1424 65.1053 54.0308L65.2392 53.8344L65.998 54.8791L66.7568 55.9283L67.0558 55.9952ZM16.4572 54.9148L16.5777 55.1068L16.2161 55.3434C16.0153 55.4729 15.3413 55.9015 14.7208 56.2988C14.1004 56.6962 13.6005 57.031 13.6094 57.0399C13.6228 57.0489 14.4352 56.8435 15.4216 56.5801C17.4257 56.0488 17.2204 56.0667 17.4257 56.4238L17.515 56.5801L16.9481 56.9462C16.6357 57.1426 15.7519 57.7096 14.9797 58.2052C14.0334 58.8169 13.5648 59.0892 13.5291 59.0624C13.4666 59.0088 13.3014 58.7052 13.3282 58.6874C13.3371 58.6785 13.971 58.2722 14.7387 57.7855C15.502 57.2944 16.1268 56.8926 16.1224 56.8881C16.1179 56.8837 15.3457 57.0712 14.4039 57.3078L12.6944 57.7409L12.6096 57.6293C12.5605 57.5668 12.4891 57.4507 12.4444 57.3703C12.373 57.2409 12.373 57.2185 12.431 57.1828C12.4667 57.1605 13.3416 56.6024 14.3727 55.9417C15.4038 55.2764 16.2697 54.7317 16.292 54.7317C16.3188 54.7273 16.3902 54.8121 16.4572 54.9148ZM64.3643 59.2499C65.2972 60.058 66.0783 60.7366 66.1006 60.7545C66.1185 60.7768 65.8596 61.1117 65.5204 61.5046L64.9089 62.2189L64.7125 62.0582L64.5205 61.8974L64.6277 61.7814C64.6812 61.7189 64.8821 61.4912 65.074 61.2724C65.3508 60.9509 65.4043 60.8617 65.3597 60.8215C65.3017 60.7679 62.2798 58.1606 62.2486 58.1382C62.2084 58.107 62.57 57.723 62.6191 57.7498C62.6458 57.7677 63.4314 58.4418 64.3643 59.2499ZM19.47 58.9776C19.4656 58.9954 18.6711 59.6964 17.7025 60.5313L15.9483 62.0537L15.7832 61.8617C15.6939 61.759 15.5153 61.5537 15.3859 61.4019C15.0199 60.9777 14.9038 60.634 15.0199 60.2902C15.1181 59.9955 15.9126 59.2365 16.2965 59.0758C16.5196 58.9821 16.841 58.9821 17.0329 59.0803C17.1178 59.1205 17.3142 59.2946 17.4748 59.4598L17.765 59.7634L18.4568 59.1651L19.1487 58.5624L19.3138 58.7544C19.4075 58.8615 19.479 58.9597 19.47 58.9776ZM60.972 60.4197C61.1684 60.5134 61.3604 60.7009 62.4941 61.9019C63.3198 62.777 63.4493 62.9689 63.4493 63.344C63.4493 64.0806 62.57 64.6476 61.9272 64.3262C61.6058 64.1655 59.6955 62.1609 59.5303 61.8126C59.4053 61.5447 59.4053 61.2456 59.5258 60.9911C59.633 60.7634 60.0079 60.4152 60.2088 60.3527C60.4096 60.2902 60.7667 60.3214 60.972 60.4197ZM21.3849 60.9376C21.4831 60.9822 21.6215 61.0849 21.6929 61.1563L21.8223 61.2903L21.6661 61.451L21.5054 61.6117L21.3358 61.4956C21.1171 61.3483 20.9698 61.3483 20.6529 61.509L20.394 61.6385L19.6039 63.2502C19.1665 64.1387 18.796 64.8619 18.7737 64.8619C18.7559 64.8619 18.6666 64.7816 18.5729 64.6878L18.3988 64.5137L18.8719 63.6029C19.1308 63.1029 19.4254 62.5493 19.5236 62.3662C19.6263 62.1832 19.7021 62.0314 19.6932 62.0224C19.6888 62.018 19.4433 62.1653 19.1487 62.3573C18.8541 62.5448 18.3274 62.8797 17.9792 63.094L17.3454 63.4868L17.1401 63.3172C17.0285 63.2234 16.9392 63.1341 16.9392 63.1207C16.9392 63.0627 20.5815 60.9108 20.7689 60.8617C21.0055 60.7991 21.1215 60.817 21.3849 60.9376ZM58.7492 62.9109C59.0482 63.3306 59.6553 64.1878 60.0972 64.8128C60.664 65.612 60.8917 65.9647 60.8604 66.0004C60.7399 66.1478 59.8383 66.7148 59.6508 66.7639C59.1821 66.8844 58.8742 66.7014 58.3653 65.9915C58.035 65.5316 57.9457 65.3084 57.9681 64.9914C57.9904 64.6655 58.1332 64.4557 58.5215 64.1699C58.6778 64.0538 58.8072 63.9512 58.8072 63.9422C58.8072 63.9333 58.5751 63.6029 58.2894 63.2056C58.0082 62.8127 57.7806 62.4689 57.7895 62.4511C57.8029 62.4064 58.1466 62.143 58.1823 62.143C58.1957 62.143 58.4501 62.4868 58.7492 62.9109ZM23.7863 62.8439C23.7997 62.8663 23.5542 63.2413 23.2373 63.6833C21.7509 65.7683 21.4429 66.2058 21.4206 66.2594C21.4117 66.2906 21.5322 66.4022 21.6929 66.5094C21.8536 66.621 22.0053 66.7326 22.0276 66.7594C22.0767 66.8174 21.8491 67.1925 21.7777 67.1657C21.7018 67.1389 20.0235 65.9334 19.9967 65.8843C19.9789 65.862 20.0235 65.7683 20.0949 65.679C20.1619 65.5852 20.2199 65.5004 20.2288 65.4915C20.2333 65.4825 20.394 65.5897 20.5904 65.7236L20.943 65.9736L21.3001 65.4736C21.492 65.1968 22.041 64.4289 22.5186 63.7592L23.3801 62.5448L23.572 62.6788C23.6792 62.7502 23.7729 62.8261 23.7863 62.8439Z" fill="#385F36"/>
<path d="M43.0822 9.4829C43.0688 9.53201 43.0152 9.93382 42.9572 10.3847C42.8768 11.0455 42.8679 11.2107 42.9125 11.2375C43.0063 11.2955 43.4883 11.3312 43.5955 11.2911C43.8276 11.2018 43.899 11.0232 43.9883 10.3222C44.0686 9.66595 43.957 9.50969 43.3544 9.43379C43.1357 9.407 43.1 9.41146 43.0822 9.4829Z" fill="#385F36"/>
<path d="M32.3875 8.44264C32.1643 8.523 32.0483 8.70159 32.0528 8.95607C32.0617 9.21055 32.6241 11.6393 32.7267 11.8536C32.816 12.05 33.0169 12.1527 33.2401 12.1215C33.4856 12.0902 33.6195 11.9831 33.6819 11.7777C33.731 11.617 33.7087 11.4875 33.432 10.2731C33.124 8.91589 33.0392 8.63908 32.8919 8.51407C32.7714 8.40692 32.5661 8.38013 32.3875 8.44264Z" fill="#385F36"/>
<path d="M21.7464 13.7645C21.7732 13.8136 22.0098 14.327 22.2731 14.9029C22.5365 15.4789 22.7731 15.9878 22.7954 16.0325C22.8311 16.1039 22.8668 16.0861 23.1569 15.8851C23.3355 15.7557 23.5185 15.6262 23.5676 15.5905C23.6524 15.5235 23.6345 15.5012 23.1658 15.0547C22.0857 14.0279 21.7018 13.6796 21.7464 13.7645Z" fill="#385F36"/>
<path d="M39.8372 18.7738C38.757 18.9434 38.0919 19.189 37.3153 19.7024C36.0342 20.5507 35.079 21.8945 34.7487 23.3143C34.4184 24.734 34.6104 26.3502 35.2442 27.5289C36.0744 29.0736 37.4804 30.1898 39.1007 30.5871C39.8684 30.7791 41.1494 30.8014 41.8904 30.6407C43.4526 30.2969 44.8408 29.3147 45.738 27.9128C46.5414 26.6583 46.8137 24.8992 46.4432 23.3187C46.2022 22.274 45.6398 21.2918 44.8229 20.4792C43.8945 19.5595 42.8322 19.0148 41.5556 18.8095C41.1896 18.747 40.1273 18.7246 39.8372 18.7738ZM41.1539 19.3229C42.2832 19.43 43.1848 19.8095 44.0507 20.5328C44.9167 21.2605 45.546 22.207 45.8362 23.216C46.1531 24.3233 46.095 25.6939 45.6889 26.752C45.2023 28.0155 44.0686 29.2031 42.8367 29.7478C41.5512 30.3103 39.8863 30.3505 38.5963 29.8415C37.1992 29.2924 35.9985 28.078 35.4897 26.7118C35.2754 26.127 35.1906 25.676 35.1638 24.9885C35.1014 23.3723 35.6414 21.9883 36.7618 20.881C37.8107 19.8453 38.9712 19.3542 40.529 19.2827C40.6049 19.2827 40.8861 19.3006 41.1539 19.3229Z" fill="#385F36"/>
<path d="M64.2438 19.2247L63.543 19.8274L63.7305 20.0506C63.9313 20.2873 64.0965 20.3944 64.2661 20.3944C64.4134 20.3944 64.7169 20.189 65.0919 19.8319C65.3909 19.5461 65.4132 19.5104 65.4132 19.3363C65.4132 19.189 65.3775 19.1086 65.2436 18.9345C64.9535 18.5684 65.0249 18.5505 64.2438 19.2247Z" fill="#385F36"/>
<path d="M15.4529 19.2872C15.252 19.5059 15.2074 19.5729 15.252 19.6131C15.2832 19.6444 15.6046 19.9212 15.9662 20.2337L16.6223 20.8007L16.8455 20.5283C17.0419 20.2962 17.0731 20.2292 17.0731 20.0685C17.0731 19.8944 17.0508 19.8587 16.7517 19.5729C16.3322 19.1756 16.0733 19.0104 15.8724 19.0104C15.7341 19.0104 15.676 19.0506 15.4529 19.2872Z" fill="#385F36"/>
<path d="M13.4041 22.0731C13.1274 22.2204 13.0604 22.6446 13.2702 22.8812C13.3684 22.9928 15.368 24.3099 15.7207 24.4974C16.0153 24.6492 16.4036 24.4751 16.4929 24.1447C16.5866 23.792 16.4884 23.6982 15.1002 22.8098C13.7701 21.957 13.6808 21.9213 13.4041 22.0731Z" fill="#385F36"/>
<path d="M12.0159 25.5778C11.9758 25.6046 11.882 25.7386 11.8106 25.877L11.6812 26.1359L12.864 26.6672C13.5157 26.9619 14.0647 27.2074 14.087 27.2163C14.1495 27.2431 14.3057 26.877 14.3057 26.694C14.3057 26.3949 14.1763 26.2966 13.2836 25.8904C12.4667 25.5198 12.2168 25.4617 12.0159 25.5778Z" fill="#385F36"/>
<path d="M11.3821 26.8101C11.2705 27.069 11.2527 27.2119 11.3152 27.3592C11.3866 27.5289 11.5473 27.6271 12.44 28.0244C13.3907 28.453 13.5603 28.4486 13.7969 27.9753C13.8594 27.8548 13.904 27.7432 13.8906 27.7342C13.8683 27.7119 11.6321 26.6984 11.5339 26.6672C11.4714 26.6449 11.4357 26.6806 11.3821 26.8101Z" fill="#385F36"/>
<path d="M31.3966 36.3733L31.5885 36.3956C31.6957 36.409 31.9233 36.4313 32.0929 36.4492C33.6195 36.5831 34.5836 37.0876 34.9005 37.9269C35.0656 38.3689 35.1817 38.9047 35.271 39.6369C35.3468 40.2396 35.3513 41.0566 35.3513 51.3565C35.3513 61.8528 35.3468 62.4644 35.2665 63.1207C35.1728 63.9288 35.021 64.5717 34.8603 64.8396C34.6818 65.1477 34.2399 65.5182 33.7891 65.7325C33.2936 65.9736 32.8294 66.0986 32.1867 66.1611C31.9144 66.1879 31.6332 66.2237 31.5573 66.2415L31.4234 66.2728V68.0095L49.7909 68.0318V66.2504L49.6034 66.2281C49.4963 66.2147 49.2061 66.1835 48.9517 66.1567C48.001 66.054 47.2243 65.7459 46.7021 65.2682C46.2736 64.8709 46.1308 64.5271 45.9745 63.5002C45.8228 62.4957 45.8138 61.4956 45.8317 50.7538C45.8451 41.3692 45.854 40.0878 45.9165 39.6146C46.046 38.6502 46.229 37.9537 46.4432 37.6055C46.8226 36.9894 47.8046 36.5608 49.099 36.4492C49.2731 36.4313 49.4963 36.409 49.6034 36.3956L49.7909 36.3733V34.5472H31.4055L31.3966 36.3733ZM49.2151 35.8688L48.7776 35.9223C47.4475 36.0786 46.4611 36.5608 45.9968 37.2796C45.6665 37.7841 45.43 38.7618 45.3318 39.9896C45.2648 40.8022 45.2648 61.8885 45.3273 62.7011C45.4746 64.5762 45.7737 65.3218 46.5994 65.9156C47.1931 66.3353 47.9251 66.6031 48.7464 66.7014L49.2106 66.7549V67.4961H31.9813V66.7549L32.4411 66.7014C33.4409 66.5853 34.3024 66.2147 34.9228 65.6477C35.4718 65.1388 35.7307 64.353 35.8602 62.7948C35.9271 62.0135 35.9271 40.7664 35.8646 39.9628C35.7352 38.3823 35.4093 37.3823 34.8559 36.8644C34.3336 36.3733 33.3561 36.0072 32.3206 35.9089L31.9813 35.8777V35.5071C31.9813 35.3062 31.9947 35.1276 32.0126 35.1142C32.026 35.0964 35.9003 35.0874 40.6138 35.0919L49.1883 35.1053L49.2151 35.8688Z" fill="#385F36"/>
<path d="M9.15034 39.9449C8.21746 39.9762 8.07909 40.0208 7.97643 40.3244C7.8693 40.6504 8.0166 40.9182 8.35583 41.0165C8.42724 41.0388 9.11463 41.0388 9.88682 41.0165C11.4714 40.9718 11.5383 40.9584 11.6901 40.6504C11.7615 40.503 11.766 40.4494 11.7213 40.311C11.6946 40.2218 11.6231 40.0967 11.5562 40.0342C11.4446 39.9316 11.4223 39.9271 10.6992 39.9226C10.2885 39.9226 9.59223 39.9316 9.15034 39.9449Z" fill="#385F36"/>
<path d="M16.3813 59.6294C16.3099 59.6785 16.0822 59.8705 15.8769 60.067C15.5511 60.3795 15.5109 60.4375 15.5109 60.5759C15.5153 60.6607 15.5377 60.7724 15.5689 60.8259C15.6626 60.9911 15.9483 61.2992 15.9929 61.2858C16.0153 61.2769 16.3411 61.0001 16.716 60.6741L17.3945 60.0803L17.1311 59.8169C16.8946 59.5803 16.8455 59.5491 16.6893 59.5491C16.5955 59.5491 16.4572 59.5848 16.3813 59.6294Z" fill="#385F36"/>
<path d="M60.2311 60.9197C59.9811 61.076 59.8918 61.4197 60.0481 61.6519C60.1641 61.8305 61.8647 63.6163 62.0522 63.7547C62.2932 63.9422 62.561 63.9288 62.7619 63.7279C62.8869 63.6029 62.9137 63.5449 62.9137 63.3797C62.9137 63.2725 62.878 63.1386 62.8333 63.0716C62.7217 62.8975 61.0167 61.1117 60.8292 60.9643C60.6417 60.8259 60.4096 60.8081 60.2311 60.9197Z" fill="#385F36"/>
<path d="M58.8206 64.5539C58.5349 64.7682 58.4769 64.8664 58.5081 65.112C58.5215 65.2504 58.5974 65.3932 58.7983 65.6745C59.1598 66.1745 59.2625 66.2683 59.4723 66.2683C59.5972 66.2683 59.7088 66.2192 59.8963 66.0897C60.0391 65.9915 60.1597 65.9022 60.1686 65.8888C60.1864 65.8576 59.1241 64.3708 59.0839 64.3753C59.0661 64.3753 58.9456 64.4557 58.8206 64.5539Z" fill="#385F36"/>
</svg>
