<svg width="80" height="80" viewBox="0 0 80 80" fill="none" xmlns="http://www.w3.org/2000/svg">
<g clip-path="url(#clip0_83_1056)">
<path d="M38.1097 0.0223753C37.1054 0.0804153 36.36 0.138455 35.811 0.196495C24.2549 1.38408 13.7388 7.62115 7.07917 17.2424C3.39675 22.5642 1.06679 28.6807 0.285666 35.083C0.0669531 36.8688 0 38.0296 0 40.0164C0 43.4006 0.35262 46.3472 1.12928 49.526C3.21375 58.0445 8.06115 65.6522 14.9216 71.1838C19.3851 74.7823 24.6566 77.4075 30.2449 78.8183C32.0884 79.2826 34.2487 79.6487 36.2573 79.8363C38.4891 80.0461 41.2163 80.055 43.4883 79.8586C50.9067 79.2201 58.0483 76.4878 63.9982 72.0143C71.3854 66.4603 76.639 58.5356 78.8306 49.6376C79.6161 46.4543 80 43.2979 80 39.9941C80 32.3149 77.853 24.9483 73.7243 18.4702C71.4479 14.894 68.4885 11.5768 65.1766 8.89356C58.6197 3.57621 50.6969 0.526877 42.1715 0.0357691C41.4931 -0.00441239 38.6766 -0.0133416 38.1097 0.0223753ZM47.8759 6.94252C47.8938 6.95145 47.9072 7.00503 47.9072 7.06307C47.9072 7.20594 47.9964 7.29969 48.175 7.3488C48.3624 7.39792 48.4963 7.35773 48.5901 7.21933C48.6481 7.13897 48.6883 7.13004 48.8177 7.15236C48.9963 7.18808 49.0097 7.21487 48.9115 7.40684C48.8088 7.60329 48.5945 7.7149 48.3312 7.7149C47.867 7.71044 47.5501 7.44256 47.5501 7.05414V6.8577L47.6974 6.88895C47.7733 6.90681 47.8536 6.92913 47.8759 6.94252ZM40.5155 8.30423C40.5289 9.04982 40.5557 10.1035 40.5736 10.6482L40.6003 11.6348L40.3459 11.6661C40.2076 11.6839 40.0826 11.6929 40.0737 11.6795C40.0647 11.6705 40.0424 11.1839 40.0246 10.599C39.9933 9.54986 39.9933 9.54093 39.8996 9.56325C39.846 9.57665 39.5961 9.59004 39.3416 9.59004H38.8774L38.8997 10.6348L38.9176 11.6795L38.6721 11.7018C38.5382 11.7152 38.4132 11.7197 38.3998 11.7107C38.382 11.7018 38.3552 11.0634 38.3418 10.2954C38.3239 9.52754 38.2972 8.46942 38.2793 7.94706L38.2525 7.00057H38.7882L38.8149 7.61222C38.8328 7.94706 38.8462 8.41585 38.8462 8.6614V9.09893H39.3059C39.5559 9.09893 39.8103 9.08554 39.8683 9.06768L39.971 9.04089L39.9531 8.00064L39.9397 6.95592H40.4843L40.5155 8.30423ZM42.8589 7.072C42.8768 7.08986 42.7071 8.53639 42.658 8.79087C42.6357 8.90249 42.6446 8.90249 43.0151 8.95607C43.64 9.03643 43.9212 9.25073 44.0283 9.71505C44.073 9.90256 44.0685 10.0454 44.006 10.5053C43.9659 10.8178 43.9034 11.1437 43.8632 11.2375C43.7204 11.5768 43.3677 11.8179 43.0107 11.8223C42.841 11.8223 41.7876 11.6929 41.7564 11.6661C41.7519 11.6616 41.8769 10.6214 42.0376 9.35788C42.1983 8.09439 42.3277 7.04968 42.3277 7.03182C42.3277 7.00057 42.8232 7.04075 42.8589 7.072ZM36.659 7.16576C36.659 7.18361 36.7885 8.22833 36.9492 9.49182C37.1099 10.7553 37.2348 11.7956 37.2304 11.8C37.2215 11.8045 37.1009 11.8268 36.9626 11.8402L36.7081 11.8715L36.6858 11.7241C36.6724 11.6438 36.6099 11.175 36.543 10.6839C36.4805 10.1928 36.4269 9.79095 36.4225 9.78648C36.418 9.78202 36.1681 9.81327 35.869 9.84899C35.5387 9.88917 35.32 9.93828 35.32 9.96507C35.32 9.99185 35.3825 10.4562 35.4539 10.9964C35.5253 11.5366 35.5744 11.9875 35.561 11.9965C35.5342 12.0277 35.079 12.0813 35.0522 12.059C35.0432 12.05 34.9004 11.0009 34.7397 9.73291L34.4451 7.4247L34.5612 7.39792C34.6237 7.38006 34.7442 7.36666 34.8335 7.3622L34.9941 7.35773L35.0923 8.12565C35.1459 8.54979 35.2039 9.0141 35.2173 9.15251C35.2396 9.3802 35.2575 9.41146 35.3378 9.41146C35.5298 9.40699 36.302 9.29091 36.3332 9.26412C36.3511 9.24627 36.3064 8.79534 36.2439 8.25959C36.177 7.7283 36.119 7.26844 36.1234 7.23719C36.1234 7.17022 36.659 7.09879 36.659 7.16576ZM45.3272 7.39792C45.3585 7.4247 44.7961 12.0009 44.7604 12.0411C44.7514 12.05 44.6309 12.0411 44.4926 12.0233C44.314 12.0009 44.2471 11.9741 44.2471 11.925C44.2471 11.8536 44.7648 7.76848 44.8095 7.48274L44.8362 7.31755L45.0639 7.34434C45.1933 7.35773 45.3094 7.38452 45.3272 7.39792ZM47.2867 7.7908C47.3894 7.80866 47.4117 7.83545 47.3939 7.91135C47.3626 8.04528 46.7065 10.8848 46.6797 11.0187C46.6663 11.0812 46.8493 10.8089 47.0859 10.416C47.5099 9.70612 48.0991 8.75516 48.3803 8.3087L48.5276 8.07654L48.8043 8.14351C48.9606 8.17922 49.09 8.21494 49.0989 8.22387C49.1168 8.24173 48.0812 12.7331 48.0455 12.7688C48.0321 12.7867 47.925 12.7778 47.809 12.7555C47.6572 12.7197 47.5947 12.6885 47.5947 12.6349C47.5947 12.5947 47.7733 11.8 47.992 10.8714C48.2062 9.94721 48.3803 9.18822 48.3714 9.18822C48.3669 9.18822 47.9295 9.92042 47.3939 10.8089L46.4253 12.434L46.1798 12.376C46.0459 12.3447 45.9209 12.309 45.9075 12.2956C45.8852 12.2733 46.1708 11.0009 46.8225 8.19262C46.9341 7.71937 46.9386 7.71044 47.0457 7.73723C47.1082 7.75062 47.2153 7.77741 47.2867 7.7908ZM32.4678 7.94706C32.6865 8.00957 32.9409 8.25512 33.048 8.50067C33.1686 8.76855 33.7577 11.3714 33.7577 11.6304C33.7577 12.1393 33.4007 12.5278 32.8516 12.6215C32.2848 12.7153 31.834 12.4563 31.6599 11.934C31.5751 11.6795 31.035 9.30877 31.0082 9.07661C30.9591 8.67479 31.1332 8.27298 31.4322 8.09886C31.7804 7.89795 32.133 7.84438 32.4678 7.94706ZM29.9727 10.9785C30.4324 12.1438 30.8029 13.1215 30.7984 13.1573C30.794 13.1885 30.7002 13.251 30.5886 13.2957L30.3833 13.376L29.7182 11.6839C29.3522 10.7553 29.0487 10.0008 29.0442 10.0052C29.0398 10.0097 29.0933 10.8669 29.1648 11.9116C29.2362 12.9519 29.2853 13.8091 29.2808 13.8091C29.1826 13.8671 28.7854 14.0055 28.7675 13.9921C28.7407 13.9654 27.0624 9.71058 27.0624 9.66594C27.0624 9.63022 27.4642 9.44271 27.4865 9.46503C27.4954 9.47396 27.7632 10.1526 28.0891 10.9741C28.8166 12.8224 28.7586 12.6974 28.7363 12.4251C28.7139 12.2376 28.6068 10.1883 28.5711 9.30431L28.5577 9.03643L28.8032 8.93821C28.9371 8.88017 29.0666 8.83999 29.0933 8.84892C29.1157 8.85338 29.5129 9.81327 29.9727 10.9785ZM52.3752 9.37127C52.4957 9.42485 52.5939 9.48289 52.5939 9.50521C52.5939 9.52754 52.21 10.3892 51.7458 11.425C51.2771 12.4608 50.9022 13.3135 50.9111 13.3269C50.9736 13.385 51.9065 13.7778 51.9288 13.7511C51.9422 13.7332 52.335 12.8805 52.7947 11.8536C53.2589 10.8267 53.6473 9.98293 53.6607 9.974C53.6741 9.96507 53.7901 10.0097 53.9195 10.0767L54.1472 10.1928L53.2813 12.1081C52.8037 13.1617 52.4153 14.0279 52.4153 14.0368C52.4153 14.0413 52.4823 14.068 52.5626 14.1038C52.6385 14.135 52.7099 14.1618 52.7189 14.1707C52.7367 14.1797 52.3261 15.0949 52.2859 15.1396C52.2636 15.1574 52.1475 15.1306 52.0181 15.0726L51.7904 14.9699L52.0583 14.4074L51.6878 14.2377C51.4869 14.1439 51.0673 13.9564 50.7594 13.8136L50.1925 13.5546L50.5719 12.7242C50.7772 12.2643 51.2102 11.3 51.536 10.5812C51.8574 9.86685 52.1297 9.27752 52.1386 9.27752C52.1475 9.27752 52.2547 9.32216 52.3752 9.37127ZM26.3036 12.3001C26.8259 13.3269 27.2588 14.1707 27.2678 14.1797C27.2722 14.1886 27.3392 14.1618 27.4151 14.1261C27.4865 14.0859 27.5579 14.0547 27.5713 14.0547C27.5981 14.0547 28.098 14.9967 28.0801 15.0145C28.0712 15.019 27.9641 15.077 27.8391 15.1396L27.6115 15.2556L27.4865 14.9878C27.4151 14.8449 27.3392 14.7243 27.3169 14.7243C27.2901 14.7243 26.8794 14.9297 26.4018 15.1753C25.7189 15.5324 25.527 15.6128 25.4957 15.5682C25.4288 15.4655 23.4247 11.5366 23.4113 11.4786C23.4023 11.4473 23.4961 11.3759 23.621 11.3134L23.8442 11.1973L24.1968 11.8804C24.3932 12.2509 24.8262 13.0948 25.1654 13.7555L25.7769 14.9476L26.2635 14.6931C26.5313 14.5502 26.75 14.4208 26.75 14.3984C26.75 14.3806 26.3304 13.5457 25.8126 12.5411C25.2993 11.5366 24.8753 10.7017 24.8753 10.6883C24.8753 10.666 25.2726 10.4428 25.3261 10.4383C25.3395 10.4383 25.7814 11.2777 26.3036 12.3001ZM56.2718 11.2911C56.495 11.4205 56.8655 11.6304 57.0931 11.7643L57.5038 12.0054L57.3922 12.1929C57.3342 12.2956 57.2672 12.3849 57.2449 12.3938C57.2226 12.3983 57.0574 12.3179 56.8744 12.2108C56.6914 12.1036 56.4325 11.9518 56.2897 11.8759L56.0397 11.7331L55.6782 12.3536C55.4773 12.6974 55.3032 13.0099 55.2899 13.0412C55.272 13.0903 55.4104 13.1885 55.7585 13.3894L56.2495 13.6707L56.1424 13.8493C56.0799 13.952 56.013 14.0368 55.9862 14.0457C55.9639 14.0547 55.7317 13.943 55.4729 13.7957L55.0087 13.5278L54.6292 14.1797C54.4195 14.5413 54.2409 14.8672 54.2275 14.9029C54.2097 14.952 54.3614 15.0592 54.7944 15.3003C55.1158 15.4833 55.3881 15.6351 55.397 15.6396C55.4148 15.6574 55.1738 16.0637 55.147 16.0637C55.0756 16.0593 53.5089 15.1306 53.5089 15.086C53.5089 15.0101 55.7808 11.0678 55.8255 11.0634C55.8523 11.0634 56.0531 11.166 56.2718 11.2911ZM22.898 14.5547C23.8264 15.4431 24.5896 16.1843 24.5986 16.2021C24.6075 16.22 24.5182 16.3004 24.4066 16.3763L24.1968 16.5191L24.0585 16.3941C23.9781 16.3227 23.8219 16.1798 23.7059 16.0682C23.5675 15.9387 23.4827 15.8851 23.438 15.9119C23.3577 15.961 22.6301 16.47 22.5855 16.5102C22.5632 16.528 22.6301 16.7245 22.7283 16.9433C22.831 17.1665 22.9113 17.3719 22.9113 17.3986C22.9113 17.4701 22.5587 17.6933 22.5141 17.6442C22.4873 17.6085 20.7822 13.9029 20.6082 13.4876L20.5457 13.3492L20.8269 13.1439C20.9786 13.0323 21.1304 12.943 21.1572 12.9385C21.1884 12.9385 21.974 13.6662 22.898 14.5547ZM59.2222 13.1439L59.4186 13.3046L58.9187 13.9341C58.642 14.2823 58.3474 14.6574 58.267 14.7601L58.1153 14.9565L58.267 15.0726C58.3474 15.1396 58.5482 15.2958 58.7089 15.4253L59.008 15.653L59.6507 14.8315C60.0033 14.3806 60.3024 14.01 60.3158 14.01C60.3292 14.01 60.4229 14.0859 60.53 14.1797L60.7264 14.3449L59.2803 16.1798C58.1644 17.604 57.8251 18.0103 57.7716 17.9835C57.7359 17.9612 57.6377 17.8898 57.5529 17.8183L57.4056 17.6888L57.9278 17.0236C58.2179 16.6531 58.5125 16.2825 58.5795 16.1932L58.7045 16.0369L58.2581 15.6842C58.0126 15.4967 57.7939 15.3539 57.776 15.3762C57.7582 15.3985 57.4636 15.7735 57.1244 16.2066L56.5084 16.9968L56.2986 16.8316C56.0933 16.6709 56.0888 16.662 56.1602 16.5682C56.5173 16.0771 58.9633 12.9876 58.9901 12.9876C59.0124 12.9831 59.1151 13.0546 59.2222 13.1439ZM20.077 16.5861C20.9385 17.4835 21.6571 18.2514 21.6794 18.2871C21.7196 18.3585 21.4562 18.6621 21.3625 18.6443C21.3313 18.6353 20.7912 18.0862 20.1663 17.4254C19.0102 16.2111 18.7915 15.9878 18.8808 16.1084C19.0504 16.345 20.8135 19.1577 20.8135 19.189C20.8135 19.2336 20.4966 19.5015 20.443 19.5015C20.4252 19.5015 19.8003 19.0818 19.0593 18.5728C18.3184 18.0594 17.6533 17.604 17.5774 17.5549C17.4614 17.4835 18.5058 18.6086 19.5726 19.7024L19.9208 20.064L19.5771 20.3989L17.9747 18.7202C17.0954 17.796 16.3678 17.0236 16.3589 17.0058C16.3544 16.9924 16.466 16.8629 16.6088 16.72L16.8677 16.4611L17.0463 16.5906C17.2337 16.729 19.8449 18.5371 19.9208 18.5862C19.9431 18.5996 19.7155 18.2246 19.4164 17.7514C19.1129 17.2781 18.6576 16.5593 18.4032 16.1575L17.9434 15.4253L18.2068 15.1887C18.3496 15.0592 18.479 14.952 18.4924 14.9476C18.5058 14.9476 19.22 15.6842 20.077 16.5861ZM62.8823 16.2289L63.5028 16.8227L63.1546 17.1799L62.5476 16.5816L62.3289 16.7959C62.2083 16.9165 61.5477 17.604 60.8648 18.3228L59.624 19.631L59.4276 19.4345L59.2312 19.2425L60.664 17.7424C61.454 16.9209 62.1012 16.2289 62.1012 16.2066C62.1012 16.1887 61.9718 16.0414 61.8111 15.8851L61.521 15.5994L61.8468 15.2646L62.0521 15.4476C62.1637 15.5503 62.5386 15.903 62.8823 16.2289ZM41.1895 17.9121C41.9617 18.0326 42.5732 18.2291 43.2472 18.5818C44.9791 19.4881 46.3315 21.1623 46.7913 22.9749C47.4072 25.4126 46.7511 27.8726 45.0237 29.6094C43.9123 30.7255 42.6402 31.3729 41.1092 31.6006C40.6539 31.6675 39.5425 31.6675 39.0917 31.6006C37.5562 31.3729 36.2796 30.7255 35.1682 29.6094C33.4587 27.8905 32.8115 25.5198 33.3828 23.0776C33.6685 21.8633 34.2621 20.8275 35.2307 19.8586C36.1591 18.93 37.1322 18.3585 38.3329 18.046C39.0604 17.854 40.395 17.7915 41.1895 17.9121ZM64.8954 18.3496C65.1096 18.5996 65.3194 18.8854 65.3641 18.988C65.5694 19.439 65.4176 19.8229 64.8017 20.3632C63.9759 21.0909 63.5608 21.1087 62.9493 20.4569C62.7083 20.198 62.6681 20.1712 62.6011 20.2247C62.5253 20.2828 61.5924 21.0864 61.396 21.2605L61.2933 21.3498L60.9184 20.9748L61.03 20.8677C61.2353 20.6623 64.4446 17.8942 64.4758 17.8942C64.4937 17.8942 64.6811 18.0996 64.8954 18.3496ZM15.8366 18.5818C16.1312 18.7202 16.8052 19.314 16.957 19.5685C17.1936 19.9792 17.14 20.3185 16.7472 20.8051C16.6267 20.9569 16.5285 21.0953 16.5285 21.1132C16.5285 21.1311 16.8275 21.4034 17.1936 21.7204C17.5596 22.0329 17.8631 22.3097 17.8631 22.3276C17.8675 22.3454 17.7917 22.4437 17.6979 22.5463L17.5239 22.7294L15.8545 21.2873C14.935 20.4926 14.136 19.8006 14.0825 19.747L13.9753 19.6488L14.4038 19.1532C14.877 18.613 15.0823 18.4746 15.4126 18.4746C15.5287 18.4746 15.7072 18.5193 15.8366 18.5818ZM13.6629 21.5954C13.7611 21.6445 14.0646 21.8275 14.328 21.9927C14.5913 22.1624 15.0734 22.466 15.3903 22.6714C16.0241 23.0687 16.3098 23.3187 16.4437 23.5732C16.6758 24.0241 16.3857 24.7474 15.8768 24.993C15.6224 25.118 15.2519 25.1001 14.9618 24.9528C14.7341 24.8322 12.9041 23.6714 12.5872 23.4393C12.3015 23.2339 12.1096 22.899 12.1096 22.6044C12.1096 22.3767 12.248 22.0285 12.4086 21.8409C12.5202 21.7159 12.7836 21.5239 12.8907 21.4972C13.0648 21.4481 13.4799 21.5016 13.6629 21.5954ZM68.0422 22.6089C68.3591 23.0955 68.618 23.5107 68.618 23.5241C68.618 23.5509 64.8106 26.0109 64.7079 26.0511C64.6811 26.06 64.6008 25.9662 64.5205 25.8457L64.3821 25.6225L66.1318 24.5018C67.0959 23.8857 67.886 23.3678 67.8949 23.3455C67.9038 23.3187 67.4084 22.5151 67.3325 22.4392C67.3146 22.4213 66.5067 22.9169 65.5381 23.5375L63.775 24.667L63.6277 24.4483C63.4492 24.1849 63.3689 24.2831 64.3107 23.6804C64.6811 23.4437 65.5247 22.9035 66.1854 22.4749C66.8504 22.0463 67.4084 21.7025 67.4307 21.707C67.453 21.7115 67.7297 22.1177 68.0422 22.6089ZM12.1989 25.0599C12.3015 25.0956 12.7077 25.2742 13.1049 25.4483C13.6629 25.7028 13.8682 25.8189 14.0289 25.9752C14.3726 26.31 14.4083 26.6583 14.1583 27.2208C14.1137 27.3279 14.0735 27.4217 14.0735 27.4306C14.0735 27.4396 14.1762 27.4887 14.2967 27.5422C14.4217 27.5958 14.5199 27.6449 14.5199 27.6583C14.5199 27.7253 14.3235 28.1182 14.2878 28.1182C14.2655 28.1182 14.1717 28.078 14.0735 28.0289C13.9753 27.9798 13.8816 27.9396 13.8638 27.9396C13.8459 27.9396 13.7789 28.0512 13.7209 28.1852C13.5959 28.4798 13.3237 28.7611 13.1049 28.837C12.7925 28.9397 12.4801 28.8638 11.6141 28.4664C10.5072 27.9664 10.2795 27.7521 10.2795 27.2253C10.2795 27.0869 10.3242 26.8949 10.3911 26.7252C10.4536 26.5734 10.5027 26.444 10.5027 26.435C10.5027 26.4261 10.3911 26.3681 10.2572 26.3056L10.0162 26.1939L10.1322 25.9528L10.2483 25.7162L10.4938 25.8234C10.6277 25.8814 10.7437 25.9261 10.7482 25.9216C10.7527 25.9127 10.8152 25.7921 10.8821 25.6537C11.0249 25.3635 11.2213 25.1403 11.4177 25.0555C11.5963 24.9751 11.9667 24.9796 12.1989 25.0599ZM69.5509 25.2564C69.6 25.3769 69.6446 25.4885 69.6446 25.5019C69.6446 25.5287 68.2877 26.6984 67.8012 27.0869C67.636 27.2208 67.511 27.3369 67.5155 27.3458C67.5244 27.3547 67.7297 27.319 67.9752 27.2699C68.3993 27.1806 70.1668 26.8681 70.2338 26.8681C70.2695 26.8681 70.4168 27.1449 70.4659 27.3012C70.4927 27.386 70.4837 27.4038 70.4034 27.4038C70.3498 27.4038 69.4214 27.5422 68.3368 27.7164C67.2521 27.886 66.3014 28.0289 66.2166 28.0289C66.0247 28.0289 65.7702 27.9217 65.614 27.7699C65.4846 27.6494 65.2435 27.2788 65.2748 27.252C65.2837 27.2431 65.3819 27.1895 65.4935 27.136C65.6854 27.0377 65.6944 27.0377 65.739 27.1181C65.7613 27.1628 65.8372 27.2565 65.9042 27.3235C66.0113 27.4396 66.047 27.4485 66.3594 27.4485H66.6987L67.2209 26.9842C67.511 26.7297 68.1181 26.1895 68.5733 25.7832C69.0286 25.3769 69.4125 25.0421 69.4259 25.0421C69.4437 25.0376 69.4973 25.1358 69.5509 25.2564ZM11.0919 29.6629C12.3015 30.0737 13.3013 30.413 13.3103 30.4264C13.3415 30.4487 13.1808 30.9309 13.1451 30.9309C13.1273 30.9309 12.6854 30.788 12.1631 30.6139C11.6364 30.4398 11.1946 30.3148 11.1767 30.3326C11.1053 30.413 10.8152 31.3059 10.8464 31.3327C10.8643 31.3506 11.2883 31.5024 11.7793 31.6675C12.2747 31.8327 12.7077 31.9845 12.7389 32.0069C12.788 32.0336 12.7836 32.0872 12.7211 32.2881C12.6765 32.4265 12.6363 32.5381 12.6274 32.5381C12.6184 32.5381 11.7034 32.2301 10.5875 31.8506C9.47163 31.4711 8.47626 31.1363 8.3736 31.105C8.26647 31.0782 8.18167 31.0291 8.18167 30.9979C8.18167 30.8728 8.32896 30.5291 8.38253 30.5291C8.41823 30.5291 8.8512 30.6675 9.34665 30.8416C9.84657 31.0113 10.2751 31.1541 10.3018 31.1541C10.3599 31.1541 10.6902 30.163 10.6455 30.1228C10.6277 30.1049 10.1947 29.9487 9.68142 29.7746C9.16364 29.596 8.73515 29.4486 8.72622 29.4397C8.70836 29.4219 8.85566 28.9218 8.88244 28.9218C8.88691 28.9218 9.88227 29.2567 11.0919 29.6629ZM71.2158 29.1718C71.2649 29.3504 71.2738 29.4263 71.2336 29.4397C71.2068 29.4486 70.3052 29.7076 69.225 30.0156C68.1493 30.3192 67.2611 30.5737 67.2566 30.5826C67.2477 30.5916 67.2923 30.7791 67.3548 31.0023L67.4709 31.4131L67.7654 31.3282C69.1224 30.9354 71.4211 30.2924 71.4702 30.288C71.555 30.2835 71.6889 30.7478 71.6175 30.7925C71.5907 30.8103 70.6891 31.0738 69.6133 31.3773C68.5376 31.6809 67.6539 31.9354 67.6449 31.9399C67.6226 31.9533 67.8235 32.6899 67.8592 32.7301C67.8904 32.7658 68.069 32.7212 70.4391 32.0426C71.2113 31.8238 71.854 31.6452 71.8764 31.6452C71.9121 31.6452 72.0772 32.1363 72.046 32.1542C72.0103 32.181 67.5378 33.4355 67.5244 33.4221C67.5155 33.4132 67.395 33.0069 67.2566 32.5158C67.1182 32.0247 66.9129 31.3015 66.8013 30.9086C66.6451 30.3505 66.6139 30.1942 66.6585 30.1764C66.8549 30.1005 70.9792 28.9307 71.0551 28.9263C71.131 28.9218 71.1622 28.9665 71.2158 29.1718ZM10.1233 33.2346C11.3285 33.4445 12.3238 33.632 12.3417 33.6498C12.3595 33.6632 12.3506 33.7704 12.3283 33.8865C12.2926 34.0383 12.2613 34.1008 12.2078 34.1008C12.1676 34.1008 11.3999 33.9713 10.5072 33.8106C9.61 33.6498 8.86012 33.5248 8.83781 33.5338C8.81995 33.5382 9.53412 33.9356 10.4358 34.4133L12.0739 35.2794L12.0426 35.4803C11.998 35.8152 11.9801 35.8509 11.873 35.8241C11.8195 35.8152 10.7928 35.6277 9.58768 35.4134C8.38699 35.2035 7.38716 35.016 7.3693 34.9982C7.35145 34.9848 7.36038 34.8776 7.38269 34.7571C7.4184 34.6097 7.44965 34.5472 7.50321 34.5472C7.54338 34.5517 8.28433 34.6767 9.14133 34.833C10.0028 34.9892 10.708 35.1142 10.7125 35.1053C10.7214 35.1008 10.5116 34.9803 10.2438 34.8419C9.98047 34.699 9.28862 34.3195 8.7039 33.9981L7.63712 33.4132L7.66836 33.1721C7.70853 32.8373 7.73085 32.7971 7.84244 32.8239C7.89154 32.8328 8.92261 33.0203 10.1233 33.2346ZM50.1836 37.226L50.0854 37.2439C50.0273 37.2528 49.6301 37.284 49.2016 37.3153C48.0768 37.3867 47.5769 37.4939 47.068 37.7796C46.8582 37.8957 46.7913 37.9582 46.6931 38.1636C46.5235 38.5029 46.403 39.0029 46.3137 39.744C46.2467 40.311 46.2378 41.3379 46.2244 50.4412C46.2021 61.8751 46.2199 62.8886 46.461 63.9021C46.5592 64.3173 46.6395 64.4601 46.8805 64.661C47.3849 65.0852 48.0678 65.2638 49.4471 65.3307C49.7417 65.3486 50.0273 65.3664 50.0854 65.3798L50.1836 65.3977L50.1746 67.1746L50.1612 68.9471H30.0307L30.0173 67.1746L30.0084 65.4022L30.1512 65.3798C30.2315 65.3664 30.5217 65.3441 30.7895 65.3307C32.2044 65.2548 32.8874 65.0584 33.4051 64.5807C33.5881 64.411 33.6194 64.3574 33.7086 63.9958C33.9541 63.0047 33.9497 63.2859 33.9675 52.2271C33.9898 40.1726 33.9765 39.628 33.6462 38.5163C33.5078 38.0564 33.3962 37.9091 33.0391 37.7305C32.5392 37.476 31.8652 37.3465 30.7449 37.293C30.4503 37.2751 30.1646 37.2572 30.111 37.2439L30.0084 37.226V33.6543H50.1836V37.226ZM72.4254 34.0025C72.4477 34.1365 72.4566 34.2481 72.4477 34.257C72.4388 34.266 71.9701 34.3552 71.4077 34.4535C70.8408 34.5562 70.3632 34.6454 70.3409 34.6499C70.3186 34.6588 70.8364 34.8419 71.488 35.0651L72.6753 35.4625L72.7244 35.6768C72.7869 35.9848 72.7825 36.0339 72.6932 35.9982C72.6486 35.9804 72.1263 35.8018 71.5371 35.6009L70.457 35.2303L69.7071 35.7705C69.292 36.0697 68.7742 36.4402 68.56 36.5965C68.3457 36.7527 68.1627 36.8733 68.1538 36.8644C68.1449 36.8554 68.1181 36.7304 68.0957 36.5876L68.0511 36.3331L68.9349 35.6812C69.4214 35.3196 69.8098 35.0115 69.8008 34.9937C69.7874 34.9714 69.6892 34.9267 69.5776 34.8865C69.3857 34.824 69.3366 34.8285 68.6492 34.949C68.252 35.0205 67.9038 35.083 67.8726 35.083C67.8324 35.083 67.7119 34.5963 67.7431 34.5606C67.7699 34.5338 72.1843 33.7525 72.2781 33.757C72.3763 33.7659 72.3941 33.7927 72.4254 34.0025ZM9.71266 36.8108C9.72159 36.8331 9.71266 37.1233 9.68588 37.4582L9.64124 38.0743H9.15025L9.1815 37.5251C9.22614 36.7572 9.21721 36.7795 9.47609 36.7795C9.59661 36.7795 9.70373 36.7929 9.71266 36.8108ZM72.9253 37.9894C72.9432 38.11 72.9476 38.2216 72.9431 38.2305C72.9342 38.2395 72.4432 38.2573 71.854 38.2707C71.2649 38.2886 70.5105 38.3109 70.1802 38.3243L69.5776 38.3511L70.4927 38.6279C70.997 38.7797 71.7514 39.0118 72.171 39.1413L72.9342 39.3779L72.961 39.6726C72.9789 39.8333 72.9833 39.9717 72.9789 39.9807C72.9699 39.9851 72.1933 40.0119 71.247 40.0387C70.3052 40.061 69.2473 40.0923 68.8992 40.1057L68.2609 40.128V39.6458L68.676 39.619C69.1 39.5922 70.6266 39.5521 71.4077 39.5431C71.6532 39.5431 71.8228 39.5253 71.7871 39.5119C71.7514 39.494 70.939 39.2529 69.9794 38.9672L68.2386 38.4538V37.8823L68.9751 37.8644C69.3812 37.851 70.265 37.8287 70.939 37.8109C71.613 37.793 72.3316 37.7707 72.5325 37.7707L72.8941 37.7617L72.9253 37.9894ZM11.1499 39.4538C11.6454 39.6771 11.8596 40.2351 11.6855 40.8245C11.6141 41.0611 11.4311 41.2709 11.1767 41.4004C10.9714 41.5031 10.3554 41.5477 8.91815 41.5656C7.67282 41.579 7.60587 41.5701 7.29789 41.3468C7.05685 41.1682 6.95866 40.9227 6.95866 40.5075C6.95866 40.2262 6.98097 40.1101 7.05686 39.9628C7.15952 39.7664 7.35591 39.5922 7.57909 39.4985C7.73531 39.4315 8.65034 39.3869 10.0117 39.3779C10.8553 39.3735 10.9937 39.3824 11.1499 39.4538ZM70.7828 41.4495C71.9612 41.5388 72.9298 41.6147 72.9342 41.6192C72.9387 41.6236 72.9298 41.7397 72.9164 41.8826C72.8851 42.1862 73.0056 42.1683 71.7335 42.0656C71.2425 42.0255 70.8319 42.0076 70.8185 42.021C70.7828 42.0522 70.698 43.0746 70.7248 43.1014C70.7382 43.1104 71.1979 43.1505 71.7469 43.1952C72.2959 43.2354 72.7646 43.28 72.7825 43.2979C72.8048 43.3157 72.8092 43.4452 72.7914 43.5836L72.7601 43.8336L72.5504 43.8113C72.4388 43.8024 72.2067 43.78 72.0326 43.7667C71.863 43.7533 70.9301 43.6818 69.9615 43.6104C68.9929 43.5345 68.1761 43.4765 68.1404 43.4765C68.0734 43.4765 68.06 43.0925 68.1225 42.9898C68.1672 42.9228 68.252 42.9273 69.5732 43.03C69.9124 43.0568 70.1936 43.0746 70.2025 43.0657C70.2204 43.0478 70.3052 41.9853 70.2918 41.9674C70.2873 41.9629 69.8231 41.9228 69.2607 41.8781L68.2386 41.8022L68.2252 41.5835C68.2029 41.2665 68.2252 41.2352 68.4484 41.262C68.5555 41.2754 69.6044 41.3602 70.7828 41.4495ZM11.7971 42.5567C11.7971 42.588 11.8105 42.7085 11.8239 42.8157L11.8507 43.0211L10.9223 43.6327L9.9894 44.2444L10.2081 44.356L10.4224 44.4631L11.1455 44.3738C11.5472 44.3203 11.9043 44.2801 11.9444 44.2801C11.9935 44.2801 12.0203 44.3426 12.0426 44.5256C12.0605 44.664 12.0694 44.7846 12.056 44.7935C12.0337 44.8158 7.41394 45.4052 7.40055 45.3873C7.39608 45.3784 7.37823 45.2578 7.36038 45.1194L7.33359 44.8649L7.47643 44.8382C7.64604 44.8114 9.38682 44.5926 9.48056 44.5881C9.51626 44.5881 9.02528 44.3828 8.39145 44.1283C7.76209 43.8783 7.22647 43.6506 7.20415 43.6283C7.14613 43.5657 7.10595 43.1193 7.15952 43.1193C7.18183 43.1193 7.67729 43.3113 8.25755 43.5434C8.84227 43.7756 9.34665 43.9676 9.3779 43.9676C9.40914 43.9676 9.8912 43.6774 10.4402 43.3202C11.8552 42.4049 11.7971 42.4362 11.7971 42.5567ZM70.2695 44.9676C71.7916 45.24 72.0147 45.3203 72.2468 45.6463C72.5191 46.0302 72.4388 46.6865 72.0772 47.0347C71.8094 47.2892 71.5461 47.3473 71.0104 47.2714C70.8007 47.2401 70.6176 47.2044 70.6132 47.1865C70.6043 47.1731 70.6177 47.0526 70.64 46.9187C70.6801 46.682 70.6801 46.682 70.8185 46.7088C71.4032 46.8294 71.6934 46.7803 71.8183 46.5436C71.9612 46.2624 71.8898 45.9677 71.6443 45.8248C71.5104 45.74 68.9661 45.2623 68.6715 45.2623C68.4573 45.2623 68.2654 45.3784 68.1895 45.5525C68.002 46.0034 68.2475 46.2579 68.9706 46.3784L69.2964 46.432L69.2697 46.682C69.2518 46.8204 69.2339 46.9365 69.225 46.9455C69.2072 46.9633 68.5287 46.8294 68.3502 46.7713C67.761 46.5838 67.5066 46.057 67.6985 45.423C67.8369 44.9676 68.1627 44.7265 68.6448 44.7265C68.7921 44.7265 69.5241 44.8337 70.2695 44.9676ZM12.0471 46.1731C12.4086 46.3427 12.6006 46.6954 12.6006 47.191C12.6006 47.6018 12.4265 47.8741 12.0426 48.0661C11.8016 48.1866 9.35558 48.7492 8.96279 48.7759C8.68158 48.7938 8.62356 48.7849 8.40931 48.6688C8.07901 48.4947 7.90939 48.1955 7.88261 47.7446C7.86476 47.4723 7.87815 47.4008 7.96742 47.2312C8.10579 46.9722 8.40484 46.7669 8.78871 46.6731C8.95832 46.6329 9.12794 46.5883 9.16811 46.5749C9.22613 46.5615 9.25292 46.6017 9.29309 46.7535C9.37343 47.0749 9.36897 47.0794 9.08776 47.1374C8.48965 47.2624 8.29325 47.4812 8.40484 47.8964C8.46287 48.1063 8.6548 48.2536 8.87352 48.2536C9.06991 48.2536 11.6855 47.6419 11.8418 47.5616C12.1408 47.4098 12.1855 46.9812 11.931 46.7267C11.7793 46.5749 11.5516 46.5615 11.1053 46.6731C10.9446 46.7133 10.7884 46.7356 10.7527 46.7222C10.7214 46.7088 10.6768 46.624 10.6634 46.5347C10.6455 46.4454 10.6232 46.3472 10.6098 46.3159C10.5875 46.2624 10.7527 46.2088 11.2838 46.0972C11.5338 46.0436 11.8328 46.0704 12.0471 46.1731ZM70.9747 48.9501C71.372 49.0885 71.6978 49.2045 71.6978 49.2135C71.6978 49.2224 71.5996 49.5081 71.5416 49.6689C71.5282 49.7046 71.1935 49.6108 70.4704 49.3697L69.4214 49.017L70.1668 49.8296C70.5775 50.2761 70.9569 50.6957 71.0194 50.7582L71.1265 50.8788L71.0462 51.1288C71.0015 51.2672 70.9524 51.3744 70.9301 51.3699C70.9122 51.361 70.631 51.0663 70.3097 50.7091C69.9838 50.352 69.6223 49.9546 69.5018 49.8251L69.2786 49.5885L67.9976 49.7492C67.2878 49.8341 66.6585 49.9055 66.5915 49.9055C66.4576 49.9055 66.4576 49.8608 66.6049 49.5483L66.6763 49.3921L67.7387 49.2492C68.3234 49.1733 68.8144 49.0974 68.8278 49.0885C68.8412 49.0751 68.7831 48.9858 68.7073 48.8876C68.5733 48.7313 68.4975 48.6956 67.8413 48.4813C67.4441 48.3473 67.1093 48.2268 67.087 48.2134C67.0602 48.1866 67.087 48.0705 67.212 47.7312C67.2254 47.6866 68.4662 48.0839 70.9747 48.9501ZM13.5156 49.9635C13.5602 50.0796 13.587 50.1823 13.5781 50.1957C13.5647 50.2046 12.7032 50.5484 11.6632 50.9591C10.6188 51.3699 9.75283 51.7181 9.73051 51.7315C9.71266 51.7494 9.76622 51.9369 9.85103 52.1512L10.0028 52.5396L9.85996 52.6021C9.52073 52.745 9.56983 52.7986 9.21274 51.8833C9.02974 51.419 8.84673 50.9458 8.8021 50.8297L8.71729 50.6154L8.92261 50.5305C9.0342 50.4814 9.14133 50.4412 9.15472 50.4412C9.17257 50.4412 9.25292 50.6198 9.33326 50.8431L9.48502 51.2404L9.69034 51.1556C9.80639 51.1109 10.592 50.8029 11.44 50.468C12.2881 50.1332 13.0692 49.8207 13.1808 49.7716C13.2924 49.7269 13.3951 49.7001 13.4085 49.718C13.4263 49.7358 13.471 49.843 13.5156 49.9635ZM68.4394 51.9369C69.5062 52.4191 70.3855 52.8209 70.3945 52.8254C70.4123 52.8432 70.2249 53.254 70.1981 53.254C70.1847 53.254 69.5062 52.9548 68.6939 52.5843C67.8815 52.2182 67.212 51.9235 67.203 51.9324C67.1941 51.9414 67.4039 52.1467 67.6673 52.3878C67.9351 52.6289 68.4707 53.1289 68.8635 53.495C69.2563 53.8611 69.6133 54.196 69.658 54.2362C69.7383 54.3076 69.7339 54.321 69.6223 54.571C69.5598 54.7183 69.5018 54.8389 69.4973 54.8478C69.4705 54.8701 65.248 52.9459 65.2346 52.9012C65.2212 52.8611 65.3908 52.495 65.4221 52.495C65.431 52.495 66.0916 52.7896 66.8861 53.1468C67.6762 53.504 68.4171 53.8388 68.5287 53.8879L68.7296 53.9728L68.618 53.8656C68.5555 53.8076 67.9663 53.2718 67.3012 52.6736C66.6406 52.0798 66.0514 51.5485 65.9934 51.4949L65.8908 51.3967L66.0068 51.1422L66.1229 50.8922L66.3103 50.9725C66.413 51.0172 67.3727 51.4502 68.4394 51.9369ZM14.3815 52.3209C14.7208 52.5128 15.0064 53.0754 14.9484 53.437C14.9127 53.6602 14.7386 53.9236 14.5244 54.0888C14.319 54.2451 12.2301 55.3255 11.8418 55.4729C11.5249 55.5934 11.2392 55.5889 10.9892 55.4639C10.8107 55.3702 10.5607 55.0577 10.4849 54.8255C10.3331 54.3924 10.4268 54.0397 10.7661 53.7317C10.9267 53.5843 11.4758 53.2718 11.507 53.3075C11.5382 53.3477 11.7079 53.7004 11.7079 53.7361C11.7079 53.7585 11.6007 53.821 11.4758 53.8835C11.0071 54.0978 10.8419 54.3389 10.9491 54.6514C11.0294 54.8969 11.1856 55.013 11.4311 55.0085C11.6141 55.0041 11.8195 54.9148 12.8461 54.3924C13.5111 54.0531 14.1137 53.7317 14.1896 53.6736C14.4708 53.4638 14.4976 53.1066 14.2476 52.8521C14.0557 52.6646 13.8727 52.6736 13.4085 52.8968C13.2076 52.995 13.0201 53.0754 12.9978 53.0754C12.9755 53.0754 12.9086 52.9771 12.8505 52.8566L12.7389 52.6423L13.1719 52.4369C13.4085 52.3253 13.654 52.2226 13.7165 52.2092C13.9129 52.1735 14.2119 52.2226 14.3815 52.3209ZM66.5558 55.9952C66.721 56.0309 67.2254 56.1336 67.6806 56.2229C68.1359 56.3122 68.5376 56.397 68.5778 56.4149C68.6403 56.4417 68.6314 56.4774 68.5064 56.6738L68.3591 56.8971L67.4262 56.7051C66.9174 56.6024 66.4844 56.522 66.4666 56.5265C66.4487 56.531 66.6942 56.8881 67.0111 57.3168L67.5824 58.0981L67.4887 58.2543C67.3102 58.5624 67.3503 58.5936 66.5871 57.5444L65.8729 56.5667L64.6276 56.3167C63.9447 56.1827 63.3733 56.0577 63.3599 56.0488C63.3376 56.022 63.5563 55.6381 63.6188 55.5979C63.6411 55.5845 64.1053 55.6648 64.6499 55.7765C65.1944 55.8881 65.6453 55.9729 65.6587 55.9595C65.6676 55.9506 65.4042 55.5666 65.0739 55.1112C64.7392 54.6514 64.4669 54.2674 64.4669 54.254C64.4669 54.2406 64.5294 54.1424 64.6053 54.0308L64.7392 53.8344L65.498 54.8791L66.2568 55.9283L66.5558 55.9952ZM15.9572 54.9148L16.0777 55.1068L15.7161 55.3434C15.5153 55.4729 14.8413 55.9015 14.2208 56.2988C13.6004 56.6962 13.1005 57.031 13.1094 57.0399C13.1228 57.0489 13.9352 56.8435 14.9216 56.5801C16.9257 56.0488 16.7204 56.0667 16.9257 56.4238L17.015 56.5801L16.4481 56.9462C16.1357 57.1426 15.2519 57.7096 14.4797 58.2052C13.5334 58.8169 13.0648 59.0892 13.0291 59.0624C12.9666 59.0088 12.8014 58.7052 12.8282 58.6874C12.8371 58.6785 13.471 58.2722 14.2387 57.7855C15.002 57.2944 15.6268 56.8926 15.6224 56.8881C15.6179 56.8837 14.8457 57.0712 13.9039 57.3078L12.1944 57.7409L12.1096 57.6293C12.0605 57.5668 11.9891 57.4507 11.9444 57.3703C11.873 57.2409 11.873 57.2185 11.931 57.1828C11.9667 57.1605 12.8416 56.6024 13.8727 55.9417C14.9038 55.2764 15.7697 54.7317 15.792 54.7317C15.8188 54.7273 15.8902 54.8121 15.9572 54.9148ZM63.8643 59.2499C64.7972 60.058 65.5783 60.7366 65.6006 60.7545C65.6185 60.7768 65.3596 61.1117 65.0204 61.5046L64.4089 62.2189L64.2125 62.0582L64.0205 61.8974L64.1277 61.7814C64.1812 61.7189 64.3821 61.4912 64.574 61.2724C64.8508 60.9509 64.9043 60.8617 64.8597 60.8215C64.8017 60.7679 61.7798 58.1606 61.7486 58.1382C61.7084 58.107 62.07 57.723 62.1191 57.7498C62.1459 57.7677 62.9314 58.4418 63.8643 59.2499ZM18.97 58.9776C18.9656 58.9954 18.1711 59.6964 17.2025 60.5313L15.4483 62.0537L15.2832 61.8617C15.1939 61.759 15.0153 61.5537 14.8859 61.4019C14.5199 60.9777 14.4038 60.634 14.5199 60.2902C14.6181 59.9955 15.4126 59.2365 15.7965 59.0758C16.0196 58.9821 16.341 58.9821 16.5329 59.0803C16.6178 59.1205 16.8141 59.2946 16.9748 59.4598L17.265 59.7634L17.9568 59.1651L18.6487 58.5624L18.8138 58.7544C18.9075 58.8615 18.979 58.9597 18.97 58.9776ZM60.472 60.4197C60.6684 60.5134 60.8604 60.7009 61.9941 61.9019C62.8198 62.777 62.9493 62.9689 62.9493 63.344C62.9493 64.0806 62.07 64.6476 61.4272 64.3262C61.1058 64.1655 59.1954 62.1609 59.0303 61.8126C58.9053 61.5447 58.9053 61.2456 59.0258 60.9911C59.133 60.7634 59.5079 60.4152 59.7088 60.3527C59.9096 60.2902 60.2667 60.3214 60.472 60.4197ZM20.8849 60.9376C20.9831 60.9822 21.1215 61.0849 21.1929 61.1563L21.3223 61.2903L21.1661 61.451L21.0054 61.6117L20.8358 61.4956C20.6171 61.3483 20.4698 61.3483 20.1529 61.509L19.894 61.6385L19.1039 63.2502C18.6665 64.1387 18.296 64.8619 18.2737 64.8619C18.2559 64.8619 18.1666 64.7816 18.0729 64.6878L17.8988 64.5137L18.3719 63.6029C18.6308 63.1029 18.9254 62.5493 19.0236 62.3662C19.1263 62.1832 19.2021 62.0314 19.1932 62.0224C19.1888 62.018 18.9433 62.1653 18.6487 62.3573C18.3541 62.5448 17.8274 62.8797 17.4792 63.094L16.8454 63.4868L16.6401 63.3172C16.5285 63.2234 16.4392 63.1341 16.4392 63.1207C16.4392 63.0627 20.0815 60.9108 20.2689 60.8617C20.5055 60.7991 20.6215 60.817 20.8849 60.9376ZM58.2492 62.9109C58.5482 63.3306 59.1553 64.1878 59.5972 64.8128C60.164 65.612 60.3917 65.9647 60.3604 66.0004C60.2399 66.1478 59.3383 66.7148 59.1508 66.7639C58.6821 66.8844 58.3742 66.7014 57.8653 65.9915C57.535 65.5316 57.4457 65.3084 57.4681 64.9914C57.4904 64.6655 57.6332 64.4557 58.0215 64.1699C58.1778 64.0539 58.3072 63.9512 58.3072 63.9422C58.3072 63.9333 58.0751 63.6029 57.7894 63.2056C57.5082 62.8127 57.2806 62.4689 57.2895 62.4511C57.3029 62.4064 57.6466 62.143 57.6823 62.143C57.6957 62.143 57.9501 62.4868 58.2492 62.9109ZM23.2863 62.8439C23.2997 62.8663 23.0542 63.2413 22.7373 63.6833C21.2509 65.7683 20.9429 66.2058 20.9206 66.2594C20.9117 66.2906 21.0322 66.4022 21.1929 66.5094C21.3536 66.621 21.5053 66.7326 21.5276 66.7594C21.5767 66.8174 21.3491 67.1925 21.2777 67.1657C21.2018 67.1389 19.5235 65.9334 19.4967 65.8843C19.4789 65.862 19.5235 65.7683 19.5949 65.679C19.6619 65.5852 19.7199 65.5004 19.7288 65.4915C19.7333 65.4825 19.894 65.5897 20.0904 65.7236L20.443 65.9736L20.8001 65.4736C20.992 65.1968 21.541 64.4289 22.0186 63.7592L22.8801 62.5448L23.072 62.6788C23.1792 62.7502 23.2729 62.8261 23.2863 62.8439Z" fill="#385F36"/>
<path d="M42.5822 9.4829C42.5688 9.53201 42.5152 9.93382 42.4572 10.3847C42.3768 11.0455 42.3679 11.2107 42.4125 11.2375C42.5063 11.2955 42.9883 11.3312 43.0955 11.2911C43.3276 11.2018 43.399 11.0232 43.4883 10.3222C43.5686 9.66595 43.457 9.50969 42.8544 9.43379C42.6357 9.407 42.6 9.41146 42.5822 9.4829Z" fill="#385F36"/>
<path d="M31.8875 8.44264C31.6643 8.523 31.5483 8.70159 31.5528 8.95607C31.5617 9.21055 32.1241 11.6393 32.2267 11.8536C32.316 12.05 32.5169 12.1527 32.7401 12.1215C32.9855 12.0902 33.1195 11.9831 33.1819 11.7777C33.231 11.617 33.2087 11.4875 32.932 10.2731C32.624 8.91589 32.5392 8.63908 32.3919 8.51407C32.2714 8.40692 32.0661 8.38013 31.8875 8.44264Z" fill="#385F36"/>
<path d="M21.2464 13.7645C21.2732 13.8136 21.5098 14.327 21.7731 14.9029C22.0365 15.4789 22.2731 15.9878 22.2954 16.0325C22.3311 16.1039 22.3668 16.0861 22.6569 15.8851C22.8355 15.7557 23.0185 15.6262 23.0676 15.5905C23.1524 15.5235 23.1345 15.5012 22.6658 15.0547C21.5857 14.0279 21.2018 13.6796 21.2464 13.7645Z" fill="#385F36"/>
<path d="M39.3372 18.7738C38.257 18.9434 37.5919 19.189 36.8153 19.7024C35.5342 20.5507 34.579 21.8945 34.2487 23.3143C33.9184 24.734 34.1104 26.3502 34.7442 27.5289C35.5744 29.0736 36.9804 30.1898 38.6007 30.5871C39.3684 30.7791 40.6494 30.8014 41.3904 30.6407C42.9526 30.2969 44.3408 29.3147 45.238 27.9128C46.0414 26.6583 46.3137 24.8992 45.9432 23.3187C45.7022 22.274 45.1398 21.2918 44.3229 20.4792C43.3945 19.5595 42.3322 19.0148 41.0556 18.8095C40.6896 18.747 39.6273 18.7246 39.3372 18.7738ZM40.6539 19.3229C41.7832 19.43 42.6848 19.8095 43.5507 20.5328C44.4167 21.2605 45.046 22.207 45.3362 23.216C45.6531 24.3233 45.595 25.6939 45.1889 26.752C44.7023 28.0155 43.5686 29.2031 42.3367 29.7478C41.0512 30.3103 39.3863 30.3505 38.0963 29.8415C36.6992 29.2924 35.4985 28.078 34.9897 26.7118C34.7754 26.127 34.6906 25.676 34.6638 24.9885C34.6014 23.3723 35.1414 21.9883 36.2618 20.881C37.3107 19.8453 38.4712 19.3542 40.029 19.2827C40.1049 19.2827 40.3861 19.3006 40.6539 19.3229Z" fill="#385F36"/>
<path d="M63.7438 19.2247L63.043 19.8274L63.2305 20.0506C63.4313 20.2873 63.5965 20.3944 63.7661 20.3944C63.9134 20.3944 64.2169 20.189 64.5919 19.8319C64.8909 19.5461 64.9132 19.5104 64.9132 19.3363C64.9132 19.189 64.8775 19.1086 64.7436 18.9345C64.4535 18.5684 64.5249 18.5505 63.7438 19.2247Z" fill="#385F36"/>
<path d="M14.9529 19.2872C14.752 19.5059 14.7074 19.5729 14.752 19.6131C14.7832 19.6444 15.1046 19.9212 15.4662 20.2337L16.1223 20.8007L16.3455 20.5283C16.5419 20.2962 16.5731 20.2292 16.5731 20.0685C16.5731 19.8944 16.5508 19.8587 16.2517 19.5729C15.8322 19.1756 15.5733 19.0104 15.3724 19.0104C15.2341 19.0104 15.176 19.0506 14.9529 19.2872Z" fill="#385F36"/>
<path d="M12.9041 22.0731C12.6274 22.2204 12.5604 22.6446 12.7702 22.8812C12.8684 22.9928 14.868 24.3099 15.2207 24.4974C15.5153 24.6492 15.9036 24.4751 15.9929 24.1447C16.0866 23.792 15.9884 23.6982 14.6002 22.8098C13.2701 21.957 13.1808 21.9213 12.9041 22.0731Z" fill="#385F36"/>
<path d="M11.5159 25.5778C11.4758 25.6046 11.382 25.7386 11.3106 25.877L11.1812 26.1359L12.364 26.6672C13.0157 26.9619 13.5647 27.2074 13.587 27.2163C13.6495 27.2431 13.8057 26.877 13.8057 26.694C13.8057 26.3949 13.6763 26.2966 12.7836 25.8904C11.9667 25.5198 11.7168 25.4617 11.5159 25.5778Z" fill="#385F36"/>
<path d="M10.8821 26.8101C10.7705 27.069 10.7527 27.2119 10.8152 27.3592C10.8866 27.5289 11.0473 27.6271 11.94 28.0244C12.8907 28.453 13.0603 28.4486 13.2969 27.9753C13.3594 27.8548 13.404 27.7432 13.3906 27.7342C13.3683 27.7119 11.1321 26.6984 11.0339 26.6672C10.9714 26.6449 10.9357 26.6806 10.8821 26.8101Z" fill="#385F36"/>
<path d="M30.8966 36.3733L31.0885 36.3956C31.1957 36.409 31.4233 36.4313 31.5929 36.4492C33.1195 36.5831 34.0836 37.0876 34.4005 37.9269C34.5656 38.3689 34.6817 38.9047 34.771 39.6369C34.8468 40.2396 34.8513 41.0566 34.8513 51.3565C34.8513 61.8528 34.8468 62.4644 34.7665 63.1207C34.6728 63.9288 34.521 64.5717 34.3603 64.8396C34.1818 65.1477 33.7399 65.5182 33.2891 65.7325C32.7936 65.9736 32.3294 66.0986 31.6867 66.1611C31.4144 66.1879 31.1332 66.2237 31.0573 66.2415L30.9234 66.2728V68.0095L49.2909 68.0318V66.2504L49.1034 66.2281C48.9963 66.2147 48.7061 66.1835 48.4517 66.1567C47.501 66.054 46.7243 65.7459 46.2021 65.2682C45.7736 64.8709 45.6308 64.5271 45.4745 63.5002C45.3228 62.4957 45.3138 61.4956 45.3317 50.7538C45.3451 41.3692 45.354 40.0878 45.4165 39.6146C45.5459 38.6502 45.729 37.9537 45.9432 37.6055C46.3226 36.9894 47.3046 36.5608 48.599 36.4492C48.7731 36.4313 48.9963 36.409 49.1034 36.3956L49.2909 36.3733V34.5472H30.9055L30.8966 36.3733ZM48.7151 35.8688L48.2776 35.9223C46.9475 36.0786 45.9611 36.5608 45.4968 37.2796C45.1665 37.7841 44.93 38.7618 44.8318 39.9896C44.7648 40.8022 44.7648 61.8885 44.8273 62.7011C44.9746 64.5762 45.2737 65.3218 46.0994 65.9156C46.6931 66.3353 47.4251 66.6031 48.2464 66.7014L48.7106 66.7549V67.4961H31.4813V66.7549L31.9411 66.7014C32.9409 66.5853 33.8024 66.2147 34.4228 65.6477C34.9718 65.1387 35.2307 64.353 35.3602 62.7948C35.4271 62.0135 35.4271 40.7664 35.3646 39.9628C35.2352 38.3823 34.9093 37.3823 34.3559 36.8644C33.8336 36.3733 32.8561 36.0072 31.8206 35.9089L31.4813 35.8777V35.5071C31.4813 35.3062 31.4947 35.1276 31.5126 35.1142C31.526 35.0964 35.4003 35.0874 40.1138 35.0919L48.6883 35.1053L48.7151 35.8688Z" fill="#385F36"/>
<path d="M8.65034 39.9449C7.71746 39.9762 7.57909 40.0208 7.47643 40.3244C7.3693 40.6504 7.5166 40.9182 7.85583 41.0165C7.92724 41.0388 8.61463 41.0388 9.38682 41.0165C10.9714 40.9718 11.0383 40.9584 11.1901 40.6504C11.2615 40.503 11.266 40.4494 11.2213 40.311C11.1946 40.2218 11.1231 40.0967 11.0562 40.0342C10.9446 39.9315 10.9223 39.9271 10.1992 39.9226C9.78854 39.9226 9.09223 39.9316 8.65034 39.9449Z" fill="#385F36"/>
<path d="M15.8813 59.6294C15.8099 59.6785 15.5822 59.8705 15.3769 60.067C15.0511 60.3795 15.0109 60.4375 15.0109 60.5759C15.0153 60.6607 15.0377 60.7724 15.0689 60.8259C15.1626 60.9911 15.4483 61.2992 15.4929 61.2858C15.5153 61.2769 15.8411 61.0001 16.216 60.6741L16.8945 60.0803L16.6311 59.8169C16.3946 59.5803 16.3455 59.5491 16.1893 59.5491C16.0955 59.5491 15.9572 59.5848 15.8813 59.6294Z" fill="#385F36"/>
<path d="M59.7311 60.9197C59.4811 61.076 59.3918 61.4197 59.5481 61.6519C59.6641 61.8305 61.3647 63.6163 61.5522 63.7547C61.7932 63.9422 62.061 63.9288 62.2619 63.7279C62.3869 63.6029 62.4137 63.5449 62.4137 63.3797C62.4137 63.2725 62.378 63.1386 62.3333 63.0716C62.2217 62.8975 60.5167 61.1117 60.3292 60.9643C60.1417 60.8259 59.9096 60.8081 59.7311 60.9197Z" fill="#385F36"/>
<path d="M58.3206 64.5539C58.0349 64.7682 57.9769 64.8664 58.0081 65.112C58.0215 65.2504 58.0974 65.3932 58.2983 65.6745C58.6598 66.1745 58.7625 66.2683 58.9723 66.2683C59.0972 66.2683 59.2088 66.2192 59.3963 66.0897C59.5391 65.9915 59.6597 65.9022 59.6686 65.8888C59.6864 65.8576 58.6241 64.3708 58.5839 64.3753C58.5661 64.3753 58.4456 64.4557 58.3206 64.5539Z" fill="#385F36"/>
</g>
<defs>
<clipPath id="clip0_83_1056">
<rect width="80" height="80" fill="white"/>
</clipPath>
</defs>
</svg>
